<svg width="99" height="99" viewBox="0 0 99 99" fill="none" xmlns="http://www.w3.org/2000/svg">
<g clip-path="url(#clip0_37_862)">
<path d="M78.4072 0.193359H20.5928C9.22324 0.193359 0 9.39727 0 20.7861V78.2332C0 89.6027 9.22324 98.8066 20.5928 98.8066H78.4072C89.7768 98.8066 99 89.5834 99 78.2139V20.7861C99 9.39727 89.7768 0.193359 78.4072 0.193359ZM12.085 52.9031C12.085 53.6766 11.4662 54.2953 10.6928 54.2953C9.91934 54.2953 9.30059 53.6766 9.30059 52.9031V46.0775C9.30059 45.3041 9.91934 44.6854 10.6928 44.6854C11.4662 44.6854 12.085 45.3041 12.085 46.0775V52.9031ZM20.7088 63.4605C20.7088 64.234 20.09 64.8527 19.3166 64.8527C18.5432 64.8527 17.9244 64.234 17.9244 63.4605V35.5395C17.9244 34.766 18.5432 34.1473 19.3166 34.1473C20.09 34.1473 20.7088 34.766 20.7088 35.5395V63.4605ZM29.3326 74.018C29.3326 74.7914 28.7139 75.4102 27.9404 75.4102C27.167 75.4102 26.5482 74.7914 26.5482 74.018V24.982C26.5482 24.2086 27.167 23.5898 27.9404 23.5898C28.7139 23.5898 29.3326 24.2086 29.3326 24.982V74.018ZM37.9564 57.8531C37.9564 58.6266 37.3377 59.2453 36.5643 59.2453C35.7908 59.2453 35.1721 58.6266 35.1721 57.8531V41.1662C35.1721 40.3928 35.7908 39.774 36.5643 39.774C37.3377 39.774 37.9564 40.3928 37.9564 41.1662V57.8531ZM46.5803 63.4605C46.5803 64.234 45.9615 64.8527 45.1881 64.8527C44.4146 64.8527 43.7959 64.234 43.7959 63.4605V35.5395C43.7959 34.766 44.4146 34.1473 45.1881 34.1473C45.9615 34.1473 46.5803 34.766 46.5803 35.5395V63.4605ZM55.2041 78.0012C55.2041 78.7746 54.5854 79.3934 53.8119 79.3934C53.0385 79.3934 52.4197 78.7746 52.4197 78.0012V20.9988C52.4197 20.2254 53.0385 19.6066 53.8119 19.6066C54.5854 19.6066 55.2041 20.2254 55.2041 20.9988V78.0012ZM63.8279 69.0873C63.8279 69.8607 63.2092 70.4795 62.4357 70.4795C61.6623 70.4795 61.0436 69.8607 61.0436 69.0873V29.9127C61.0436 29.1393 61.6623 28.5205 62.4357 28.5205C63.2092 28.5205 63.8279 29.1393 63.8279 29.9127V69.0873ZM72.4324 58.3172C72.4324 59.0906 71.8137 59.7094 71.0402 59.7094C70.2668 59.7094 69.648 59.0906 69.648 58.3172V40.6635C69.648 39.89 70.2668 39.2713 71.0402 39.2713C71.8137 39.2713 72.4324 39.89 72.4324 40.6635V58.3172ZM81.0563 70.3248C81.0563 71.0982 80.4375 71.717 79.6641 71.717C78.8906 71.717 78.2719 71.0982 78.2719 70.3248V28.6752C78.2719 27.9018 78.8906 27.283 79.6641 27.283C80.4375 27.283 81.0563 27.9018 81.0563 28.6752V70.3248ZM89.6801 52.9611C89.6801 53.7346 89.0613 54.3533 88.2879 54.3533C87.5145 54.3533 86.8957 53.7346 86.8957 52.9611V46.0389C86.8957 45.2654 87.5145 44.6467 88.2879 44.6467C89.0613 44.6467 89.6801 45.2654 89.6801 46.0389V52.9611Z" fill="#303030"/>
</g>
<defs>
<clipPath id="clip0_37_862">
<rect width="99" height="99" fill="white"/>
</clipPath>
</defs>
</svg>
