<svg width="21" height="21" viewBox="0 0 21 21" fill="none" xmlns="http://www.w3.org/2000/svg">
<path d="M16.1346 2.24041C16.9614 1.41353 18.375 1.99891 18.375 3.16834V11.8125L18.3658 12.1498C18.3496 12.4774 18.3088 12.8034 18.2437 13.125H19.0312C19.2053 13.125 19.3722 13.1941 19.4953 13.3172C19.6184 13.4403 19.6875 13.6072 19.6875 13.7812C19.6875 13.9553 19.6184 14.1222 19.4953 14.2453C19.3722 14.3683 19.2053 14.4375 19.0312 14.4375H17.8264C17.6234 14.9031 17.3671 15.3435 17.0625 15.75H19.0312C19.2053 15.75 19.3722 15.8191 19.4953 15.9422C19.6184 16.0653 19.6875 16.2322 19.6875 16.4062C19.6875 16.5803 19.6184 16.7472 19.4953 16.8703C19.3722 16.9933 19.2053 17.0625 19.0312 17.0625H15.75C14.6541 17.8867 13.2904 18.375 11.8125 18.375H9.1875C7.76726 18.3769 6.38505 17.9161 5.25 17.0625H1.96875C1.7947 17.0625 1.62778 16.9933 1.50471 16.8703C1.38164 16.7472 1.3125 16.5803 1.3125 16.4062C1.3125 16.2322 1.38164 16.0653 1.50471 15.9422C1.62778 15.8191 1.7947 15.75 1.96875 15.75H3.9375C3.63248 15.3436 3.3757 14.9031 3.17231 14.4375H1.96875C1.7947 14.4375 1.62778 14.3683 1.50471 14.2453C1.38164 14.1222 1.3125 13.9553 1.3125 13.7812C1.3125 13.6072 1.38164 13.4403 1.50471 13.3172C1.62778 13.1941 1.7947 13.125 1.96875 13.125H2.75625C2.6908 12.8034 2.64956 12.4775 2.63288 12.1498L2.625 11.8125V3.16834C2.625 2.00022 4.03856 1.41353 4.86544 2.24041L7.98656 5.36153C8.37681 5.28803 8.77712 5.25084 9.1875 5.24997H11.8125C12.2238 5.25084 12.6236 5.28803 13.0121 5.36153L16.1346 2.24041ZM10.1154 14.4375C9.93188 14.4374 9.75243 14.4918 9.5998 14.5938C9.44716 14.6958 9.3282 14.8407 9.25795 15.0103C9.1877 15.1799 9.16932 15.3665 9.20514 15.5465C9.24096 15.7265 9.32937 15.8919 9.45919 16.0217L10.0367 16.5992C10.1598 16.7222 10.3266 16.7913 10.5007 16.7913C10.6747 16.7913 10.8416 16.7222 10.9646 16.5992L11.5421 16.0217C11.6713 15.8916 11.7591 15.7263 11.7946 15.5465C11.8301 15.3667 11.8116 15.1804 11.7414 15.0111C11.6713 14.8418 11.5526 14.697 11.4004 14.5949C11.2482 14.4928 11.0692 14.4381 10.8859 14.4375H10.1154ZM7.21875 10.5C7.0447 10.5 6.87778 10.5691 6.75471 10.6922C6.63164 10.8153 6.5625 10.9822 6.5625 11.1562V13.7812C6.5625 13.9553 6.63164 14.1222 6.75471 14.2453C6.87778 14.3683 7.0447 14.4375 7.21875 14.4375C7.3928 14.4375 7.55972 14.3683 7.68279 14.2453C7.80586 14.1222 7.875 13.9553 7.875 13.7812V11.1562C7.875 10.9822 7.80586 10.8153 7.68279 10.6922C7.55972 10.5691 7.3928 10.5 7.21875 10.5ZM13.7812 10.5C13.6072 10.5 13.4403 10.5691 13.3172 10.6922C13.1941 10.8153 13.125 10.9822 13.125 11.1562V13.7812C13.125 13.9553 13.1941 14.1222 13.3172 14.2453C13.4403 14.3683 13.6072 14.4375 13.7812 14.4375C13.9553 14.4375 14.1222 14.3683 14.2453 14.2453C14.3684 14.1222 14.4375 13.9553 14.4375 13.7812V11.1562C14.4375 10.9822 14.3684 10.8153 14.2453 10.6922C14.1222 10.5691 13.9553 10.5 13.7812 10.5Z" fill="black"/>
</svg>
