<svg width="21" height="21" viewBox="0 0 21 21" fill="none" xmlns="http://www.w3.org/2000/svg">
<path d="M19.0312 12.4687C19.0328 11.5854 18.8104 10.7161 18.3848 9.94212C18.4395 9.86118 18.4861 9.77499 18.5246 9.68356C18.6222 9.45013 18.657 9.19523 18.6257 8.94418C18.5943 8.69313 18.4978 8.45465 18.3457 8.25243C18.1936 8.05022 17.9913 7.8913 17.7589 7.79146C17.5264 7.69162 17.2718 7.65434 17.0205 7.68331C17.1307 7.46106 17.2182 7.22918 17.283 6.98768L17.7647 5.19809C18.0269 4.36451 17.9732 3.46356 17.6136 2.6671C17.254 1.87065 16.6139 1.23442 15.8152 0.87979C15.0165 0.525161 14.1153 0.47695 13.2833 0.744354C12.4514 1.01176 11.747 1.57606 11.3045 2.32962C10.8993 1.77106 10.3082 1.3753 9.63744 1.21343C8.96664 1.05156 8.2601 1.1342 7.64476 1.44649C7.02942 1.75879 6.5456 2.28028 6.28023 2.91727C6.01486 3.55426 5.98533 4.265 6.19695 4.92181H4.69348C2.09604 4.92181 1.07623 8.29034 3.23726 9.73081L4.51039 10.58L3.62248 14.0634C3.51148 14.4837 3.49934 14.9241 3.58701 15.3499C3.67468 15.7757 3.85978 16.1754 4.12779 16.5177C4.478 16.9692 4.95589 17.3048 5.49936 17.4811V19.6874C5.49936 19.8615 5.5685 20.0284 5.69157 20.1515C5.81464 20.2745 5.98156 20.3437 6.15561 20.3437H18.375C18.549 20.3437 18.716 20.2745 18.839 20.1515C18.9621 20.0284 19.0312 19.8615 19.0312 19.6874V12.4687ZM9.84373 17.6202H11.6287C12.0089 17.6203 12.3738 17.4711 12.6451 17.2048C12.9163 16.9384 13.0722 16.5763 13.079 16.1962C13.079 16.0017 13.0406 15.8092 12.966 15.6296C12.8914 15.45 12.7821 15.287 12.6443 15.1498C12.5064 15.0126 12.3429 14.9039 12.163 14.8301C11.9831 14.7563 11.7904 14.7188 11.5959 14.7196H9.84373V12.909C9.84375 12.801 9.8171 12.6947 9.76616 12.5994C9.71522 12.5042 9.64155 12.423 9.5517 12.363L3.96504 8.63881C2.88486 7.91824 3.39476 6.23431 4.69348 6.23431H6.55592L6.71342 6.81837C6.86357 7.37711 7.16882 7.88194 7.59387 8.27447C8.01891 8.667 8.54639 8.93119 9.11529 9.03649C9.48521 9.10123 9.8645 9.08895 10.2294 9.00042C10.5944 8.91189 10.9372 8.74902 11.2363 8.52199C11.2726 8.52812 11.3098 8.53118 11.3479 8.53118H13.7812C14.0328 8.53162 14.2778 8.55437 14.5162 8.59943L12.869 9.23337C12.5542 9.35566 12.292 9.58398 12.1275 9.87894C11.963 10.1739 11.9067 10.517 11.9681 10.8491C12.0295 11.1812 12.2049 11.4814 12.4641 11.698C12.7232 11.9146 13.0498 12.034 13.3875 12.0356C13.5673 12.0356 13.7451 12.0021 13.9125 11.9371L17.2718 10.6443C17.5573 11.189 17.7187 11.8105 17.7187 12.4687V19.0312H9.84373V17.6202ZM12.2095 7.21868C12.2345 7.15393 12.2574 7.08831 12.2784 7.02181C12.4504 6.46985 12.462 5.88041 12.3119 5.32212L12.0179 4.25834L12.1754 3.67165L12.1793 3.6559C12.2432 3.35863 12.3669 3.07746 12.5428 2.82943C12.7187 2.58141 12.9431 2.37171 13.2025 2.21307C13.4619 2.05442 13.7508 1.95013 14.0518 1.90654C14.3527 1.86295 14.6593 1.88095 14.9531 1.95946C15.2468 2.03797 15.5215 2.17535 15.7606 2.36326C15.9996 2.55118 16.198 2.7857 16.3437 3.0526C16.4893 3.31951 16.5792 3.61322 16.6079 3.91593C16.6366 4.21863 16.6035 4.52401 16.5106 4.81353L16.506 4.82796L16.0158 6.64906C15.9291 6.97054 15.7772 7.27076 15.5695 7.53106C14.9961 7.32388 14.3909 7.21818 13.7812 7.21868H12.2095Z" fill="black"/>
</svg>
