<svg width="22" height="22" viewBox="0 0 22 22" fill="none" xmlns="http://www.w3.org/2000/svg">
<path d="M2.63596 2.63596C6.15063 -0.878706 11.8497 -0.878601 15.3645 2.63596C18.7607 6.03221 18.8745 11.4675 15.7072 15.0012C15.9562 15.0063 16.2038 15.1032 16.3938 15.2932L21.344 20.2434C21.734 20.6339 21.7342 21.267 21.344 21.6574C20.9534 22.048 20.3195 22.048 19.9289 21.6574L14.9797 16.7072C14.7782 16.5057 14.6813 16.2398 14.6877 15.9758C11.1526 18.8652 5.93327 18.6618 2.63596 15.3645C-0.878601 11.8497 -0.878706 6.15063 2.63596 2.63596ZM13.9504 4.051C11.2167 1.31733 6.78467 1.31733 4.051 4.051C1.31733 6.78467 1.31733 11.2167 4.051 13.9504C6.7847 16.6838 11.2169 16.684 13.9504 13.9504C16.684 11.2169 16.6838 6.7847 13.9504 4.051Z" fill="white"/>
</svg>
