<svg width="31" height="31" viewBox="0 0 31 31" fill="none" xmlns="http://www.w3.org/2000/svg">
<path d="M14.5125 8.5254L13.788 7.83613V7.83613L14.5125 8.5254ZM9.83068 17.7907L8.83785 17.6712V17.6712L9.83068 17.7907ZM14.8647 8.16424L14.1576 7.45714V7.45714L14.8647 8.16424ZM24.4913 3.13021L24.6109 4.12304L24.4913 3.13021ZM27.8699 6.50873L28.8627 6.62827L28.8627 6.62827L27.8699 6.50873ZM22.9379 16.0324L22.2257 15.3304L22.2257 15.3304L22.9379 16.0324ZM22.2822 16.6682L21.6024 15.9347L21.6024 15.9347L22.2822 16.6682ZM13.2092 21.1692L13.0897 20.1764L13.0897 20.1764L13.2092 21.1692ZM11.0766 21.2212L10.9984 22.2182L10.9984 22.2182L11.0766 21.2212ZM9.7787 19.9234L10.7757 19.8453L10.7756 19.8453L9.7787 19.9234ZM12.0253 9.95344C11.7014 10.4007 11.8014 11.026 12.2487 11.3499C12.696 11.6738 13.3212 11.5738 13.6452 11.1265L12.8352 10.54L12.0253 9.95344ZM16.7842 21.2952C17.3007 21.0997 17.5608 20.5224 17.3652 20.0059C17.1696 19.4894 16.5924 19.2293 16.0759 19.4249L16.43 20.36L16.7842 21.2952ZM19.7078 17.4734C19.2568 17.7922 19.1497 18.4163 19.4685 18.8672C19.7874 19.3182 20.4114 19.4253 20.8624 19.1065L20.2851 18.2899L19.7078 17.4734ZM11.4688 15.2139C11.6533 14.6934 11.3808 14.1218 10.8603 13.9374C10.3397 13.7529 9.76815 14.0254 9.58368 14.5459L10.5263 14.8799L11.4688 15.2139ZM14.8647 8.16424L14.1576 7.45714C14.0323 7.58243 13.9091 7.70878 13.788 7.83613L14.5125 8.5254L15.237 9.21467C15.3467 9.09935 15.4583 8.98489 15.5719 8.87135L14.8647 8.16424ZM24.4913 3.13021L24.3718 2.13739C20.9156 2.55353 17.2092 4.40558 14.1576 7.45714L14.8647 8.16424L15.5719 8.87135C18.3543 6.08891 21.6617 4.47813 24.6109 4.12304L24.4913 3.13021ZM27.8699 6.50873L28.8627 6.62827C29.1792 3.99959 27.0005 1.82088 24.3718 2.13739L24.4913 3.13021L24.6109 4.12304C25.9521 3.96154 27.0385 5.04796 26.877 6.38919L27.8699 6.50873ZM22.9379 16.0324L23.65 16.7345C26.6375 13.7041 28.4514 10.0442 28.8627 6.62827L27.8699 6.50873L26.877 6.38919C26.5261 9.30349 24.9489 12.5681 22.2257 15.3304L22.9379 16.0324ZM22.8358 16.1352L23.5429 16.8423C23.5788 16.8065 23.6145 16.7705 23.65 16.7345L22.9379 16.0324L22.2257 15.3304C22.1935 15.363 22.1612 15.3956 22.1287 15.4281L22.8358 16.1352ZM22.2822 16.6682L22.9619 17.4017C23.1579 17.2201 23.3516 17.0336 23.5429 16.8423L22.8358 16.1352L22.1287 15.4281C21.9553 15.6015 21.7798 15.7703 21.6024 15.9347L22.2822 16.6682ZM11.0766 21.2212L10.9984 22.2182C11.7572 22.2776 12.538 22.2573 13.3288 22.1621L13.2092 21.1692L13.0897 20.1764C12.42 20.2571 11.7719 20.2726 11.1547 20.2243L11.0766 21.2212ZM9.7787 19.9234L8.78175 20.0015C8.87479 21.1889 9.81106 22.1251 10.9984 22.2182L11.0766 21.2212L11.1547 20.2243C10.9486 20.2081 10.7918 20.0513 10.7757 19.8453L9.7787 19.9234ZM9.83068 17.7907L8.83785 17.6712C8.74264 18.4619 8.7223 19.2427 8.78175 20.0015L9.7787 19.9234L10.7756 19.8453C10.7273 19.228 10.7429 18.58 10.8235 17.9103L9.83068 17.7907ZM14.5125 8.5254L13.788 7.83613C13.1408 8.51641 12.5525 9.22535 12.0253 9.95344L12.8352 10.54L13.6452 11.1265C14.1198 10.4711 14.6509 9.83074 15.237 9.21467L14.5125 8.5254ZM13.2092 21.1692L13.3288 22.1621C14.467 22.025 15.6298 21.7324 16.7842 21.2952L16.43 20.36L16.0759 19.4249C15.0597 19.8097 14.0542 20.0603 13.0897 20.1764L13.2092 21.1692ZM20.2851 18.2899L20.8624 19.1065C21.5831 18.5969 22.2859 18.028 22.9619 17.4017L22.2822 16.6682L21.6024 15.9347C20.9906 16.5017 20.3561 17.015 19.7078 17.4734L20.2851 18.2899ZM10.5263 14.8799L9.58368 14.5459C9.21325 15.5913 8.96186 16.6413 8.83785 17.6712L9.83068 17.7907L10.8235 17.9103C10.9286 17.0377 11.1437 16.1315 11.4688 15.2139L10.5263 14.8799Z" fill="black"/>
<path d="M15.0506 25.7267C14.5682 25.8349 14.2882 25.2207 14.6147 24.8505C16.3157 22.9218 16.9659 20.597 16.0916 18.6805C16.0772 18.6488 16.0938 18.6117 16.1272 18.6025C17.1001 18.3318 18.1627 18.1843 19.2757 18.1873C19.5838 18.1881 19.8881 18.2004 20.1877 18.2237C20.3657 18.2375 20.5231 18.348 20.5887 18.5142C20.7873 19.0173 20.8941 19.5468 20.8956 20.0933C20.9027 22.7331 18.4495 24.964 15.0506 25.7267Z" stroke="black" stroke-width="2"/>
<path d="M5.09588 15.7719C4.98762 16.2544 5.60182 16.5344 5.9721 16.2078C7.90075 14.5069 10.2256 13.8567 12.1422 14.731C12.1738 14.7454 12.2109 14.7288 12.2201 14.6954C12.4908 13.7225 12.6383 12.6599 12.6354 11.5469C12.6345 11.2388 12.6222 10.9345 12.5989 10.6349C12.5851 10.4569 12.4746 10.2995 12.3084 10.2339C11.8053 10.0353 11.2758 9.92847 10.7293 9.927C8.08943 9.91991 5.85855 12.3731 5.09588 15.7719Z" stroke="black" stroke-width="2"/>
<circle cx="2.25454" cy="2.25454" r="2.25454" transform="matrix(0.70711 0.707104 -0.70711 0.707104 20.9036 6.73108)" stroke="black" stroke-width="2"/>
<path d="M2.61584 26.3393C2.05989 28.2393 2.76081 28.9402 4.66078 28.3842L8.74898 27.2484C10.3508 26.7797 11.055 24.9052 10.158 23.4978L9.42245 22.3438C9.22602 22.0356 8.96454 21.7741 8.65634 21.5777L7.50232 20.8422C6.09491 19.9452 4.2204 20.6494 3.7517 22.2511L2.61584 26.3393Z" stroke="black" stroke-width="2"/>
</svg>
