<svg width="195" height="168" viewBox="0 0 195 168" fill="none" xmlns="http://www.w3.org/2000/svg">
<g clip-path="url(#clip0_43_2536)">
<path d="M16.2952 155.363L20.7451 156.987L28.9022 141.123L22.3359 138.728L16.2952 155.363Z" fill="#ED9DA0"/>
<path d="M22.4454 157.702L22.8908 155.079L22.2061 154.83L17.5114 153.383L16.4241 153.051L12.5455 161.19L12.3375 161.627L15.3956 162.742L15.657 162.329L16.8421 160.45L17.2479 162.909L17.3367 163.451L25.4438 166.408C26.4498 166.769 27.5167 166.364 27.8356 165.499C28.6785 164.245 23.0183 158.804 22.4454 157.702Z" fill="#090814"/>
<path d="M32.9885 55.6343L38.7177 56.0469L37.1335 62.6577L31.5962 61.0639L32.9885 55.6343Z" fill="#ED9DA0"/>
<path d="M44.5322 159.926H49.6599L52.099 142.22H44.5312L44.5322 159.926Z" fill="#ED9DA0"/>
<path d="M51.0918 159.92L50.6156 157.301H49.8872L44.9834 157.552L43.8485 157.612L42.9809 166.595L42.9343 167.077H46.1879L46.2924 166.598L46.765 164.425L47.985 166.598L48.2531 167.077H56.879C57.9472 167.071 58.8111 166.323 58.8158 165.401C59.1794 163.933 52.006 160.759 51.0918 159.92Z" fill="#090814"/>
<path d="M61.0366 59.188C60.6192 59.252 60.2206 59.406 59.8685 59.6394C59.5163 59.8729 59.2189 60.1801 58.9969 60.54C58.7749 60.8999 58.6335 61.3037 58.5826 61.7237C58.5316 62.1436 58.5723 62.5696 58.7019 62.9723L53.697 67.312L55.5877 71.0021L62.5696 64.7741C63.2298 64.5048 63.7685 64.0023 64.0837 63.3618C64.3988 62.7213 64.4685 61.9872 64.2796 61.2986C64.0907 60.61 63.6562 60.0148 63.0586 59.6256C62.4609 59.2365 61.7415 59.0804 61.0366 59.187V59.188Z" fill="#ED9DA0"/>
<path d="M55.7668 70.8418L53.8868 67.1498L53.6933 66.7704C51.6808 67.4784 47.7273 69.7949 45.9246 70.9776C45.2639 70.0552 41.5897 66.0421 38.4129 64.5023C38.4129 64.4996 38.4102 64.5023 38.4102 64.5023C38.1919 64.397 37.9763 64.3028 37.7634 64.2198C37.2714 64.0217 36.7481 63.9129 36.218 63.8985C35.9831 63.8972 35.7493 63.9307 35.5242 63.9981C35.2875 64.0675 35.0662 64.1813 34.8718 64.3333C34.3549 64.7322 33.9623 65.4273 33.741 66.5018C33.7153 67.0118 33.7818 67.5222 33.9372 68.0085C34.8218 70.9471 38.3164 74.2292 39.5523 76.3452C39.6741 76.6721 40.8875 79.8902 42.8036 81.0314C42.9045 81.0928 43.0088 81.1483 43.116 81.1977C43.235 81.2143 43.3539 81.2282 43.4782 81.2336H43.4809C43.675 81.2475 43.8698 81.2503 44.0643 81.2419C44.1638 81.2392 44.2661 81.2309 44.3685 81.2226C44.3906 81.2199 44.4099 81.2199 44.4321 81.217C45.0701 81.1461 45.6991 81.0088 46.3087 80.807C46.3779 80.7848 46.4468 80.7626 46.5161 80.7377C47.0401 80.5587 47.5542 80.3516 48.0561 80.1173C48.3463 79.9842 48.6339 79.8404 48.9215 79.6908C49.2697 79.5079 49.6182 79.3141 49.9582 79.1119C50.2507 78.9429 50.5387 78.7657 50.8207 78.5828V78.5801C50.887 78.5413 50.9535 78.4971 51.0198 78.45H51.0225C53.5439 76.8076 55.6009 74.8993 55.9962 74.11C56.2915 73.6694 56.5311 73.1937 56.7095 72.694L55.7668 70.8418Z" fill="#090814"/>
<path d="M44.3246 80.187C44.3246 80.187 51.2557 87.9998 49.5134 89.745C47.7711 91.4901 45.0601 91.9487 45.0601 91.9487L41.7456 91.6928L44.3246 80.187Z" fill="#2F2E41"/>
<path d="M35.8215 62.8706C44.7611 68.1105 47.7673 73.1161 43.633 83.1889L35.8215 62.8706Z" fill="#2F2E41"/>
<path d="M27.8074 101.118C27.0821 100.78 25.2806 128.044 25.1336 128.729L14.8035 148.017L29.507 154.62L39.1741 120.99L40.7855 133.365L38.6379 153.005L48.1426 155.307L54.7165 154.837L50.1508 98.9268L41.4871 83.1895L27.8074 101.118Z" fill="#090814"/>
<path d="M35.0508 63.6431C47.1893 72.0315 44.2253 72.181 44.3242 85.1282L50.1082 99.4759C50.1082 99.4759 29.7179 106.806 27.6273 101.954C25.5368 97.103 35.0508 63.6431 35.0508 63.6431Z" fill="#F1D914"/>
<path d="M44.4814 82.5738C44.457 82.4852 44.426 82.3827 44.3929 82.2748V82.2721C44.3403 82.0975 44.2796 81.9058 44.2077 81.6876C44.1633 81.5491 44.1165 81.3995 44.0639 81.2418C44.0307 81.1421 43.9976 81.0396 43.9615 80.9314C42.9884 77.9873 41.0255 72.4978 38.6423 66.429V66.4263C38.3547 65.6979 38.0617 64.9621 37.7632 64.219C37.7357 64.1525 37.7106 64.0832 37.683 64.0168C37.5641 63.7204 37.4425 63.4213 37.3209 63.1222L33.8292 59.6253L31.9466 58.3955L27.7996 62.2313C27.7996 62.2313 27.8023 62.2977 27.8079 62.4279C27.8659 63.6105 28.1508 69.9965 28.1866 77.5473C28.1949 79.45 28.1893 81.4276 28.1561 83.4135V83.4662C28.1479 83.987 28.1561 84.3913 28.1805 84.7182C28.1925 84.9505 28.2193 85.1818 28.2607 85.4106C28.4154 86.2637 28.6994 86.4631 28.8524 88.2383C28.8524 88.2383 25.5901 92.4509 27.484 96.057C27.6341 96.0794 27.7858 96.0887 27.9375 96.0846C28.6065 96.0956 30.1658 96.054 34.4539 96.0514C35.1977 96.0457 36.0214 96.0457 36.9366 96.0487C42.9331 96.0487 39.7012 92.5727 42.9055 89.4078C42.9747 89.3385 43.0437 89.2721 43.1183 89.2057C43.3455 88.9996 43.5856 88.8081 43.837 88.6324L44.3732 86.9651L44.5438 86.4307L44.5464 86.3613L44.563 85.6218L44.5988 84.1484L44.6232 83.1679C44.5919 82.9667 44.5438 82.7684 44.4794 82.5753L44.4814 82.5738Z" fill="#090814"/>
<path opacity="0.2" d="M29.5562 71.5884L28.6038 77.5432L35.0506 80.2071L29.5562 71.5884Z" fill="black"/>
<path d="M39.0782 46.8931C46.2903 51.0044 40.3699 61.8521 33.023 57.9895C25.8106 53.8782 31.7327 43.0304 39.0782 46.8931Z" fill="#ED9DA0"/>
<path opacity="0.2" d="M25.4746 83.0381C29.2989 87.5531 35.816 88.205 40.7653 85.1751L25.4746 83.0381Z" fill="black"/>
<path d="M42.9345 49.1724C42.4291 49.8316 41.3733 49.522 39.3059 49.992C39.3105 49.2899 39.2295 48.5899 39.0649 47.9074C38.9111 48.7524 38.574 49.5533 38.0774 50.2535C36.2822 50.4529 38.4829 55.9177 37.5636 59.934C36.3792 51.4591 33.8882 53.6794 35.1467 55.3603C35.9524 56.4365 35.4148 59.6649 32.9984 58.0506C29.0106 59.9494 23.3307 50.5176 29.6257 46.0944C29.5131 43.7034 32.1688 43.3257 33.8041 44.0609C37.7725 41.0991 42.3065 44.8939 42.9345 49.1724Z" fill="#090814"/>
<path d="M26.624 44.225C26.7122 50.7013 19.9196 44.2174 18.4359 50.8682C18.0216 53.255 19.6942 54.6134 20.9015 56.3209C21.3722 57.8163 19.5217 58.9446 19.5615 60.3902C20.0731 63.6302 25.2396 62.5121 26.3343 60.2171C27.4522 57.8196 25.1635 55.2733 25.6578 52.8249C26.3595 49.4228 31.4884 48.4906 31.2826 44.7134C30.2 43.6308 27.6217 42.6279 26.624 44.225Z" fill="#090814"/>
<path d="M30.9345 43.955C30.8818 43.9772 30.8294 43.9994 30.7824 44.0243H30.7797C30.7353 44.0466 30.6912 44.0688 30.6469 44.0937C30.6413 44.0964 30.6386 44.0993 30.633 44.102C30.575 44.0466 30.517 43.9911 30.456 43.9357C30.4403 44.0259 30.444 44.1185 30.467 44.2072L30.4753 44.2404C30.5306 44.2985 30.5886 44.3539 30.6496 44.4113C30.7049 44.3698 30.7573 44.3254 30.8126 44.2839C30.8457 44.2563 30.8789 44.2284 30.915 44.2009C30.9206 44.1288 30.9289 44.0458 30.9371 43.9543L30.9345 43.955ZM32.5988 40.8751C31.3658 40.5926 30.9676 42.2074 30.8487 42.9855C30.4007 40.1604 28.5373 41.0496 29.1817 42.9772C29.387 43.5479 29.7101 44.0689 30.13 44.506C30.188 44.5725 30.2518 44.6391 30.3179 44.7055C30.2433 45.0932 30.6193 44.9936 31.128 44.6362C31.5036 44.3686 31.851 44.0633 32.1647 43.725C33.1795 42.6588 33.9701 41.2325 32.5997 40.8753L32.5988 40.8751ZM32.6375 42.4647C32.2571 42.9561 31.8302 43.4096 31.3629 43.819C31.2167 43.952 31.0674 44.0791 30.915 44.2009C30.9123 44.2253 30.9123 44.2482 30.9094 44.2675C30.8987 44.2944 30.8857 44.3204 30.8706 44.3451C30.7159 44.6249 30.5416 44.4726 30.4753 44.2399C30.4697 44.2316 30.4614 44.2233 30.456 44.2155C30.2351 43.9869 30.043 43.7321 29.8838 43.4567C28.742 41.4737 30.5806 40.1248 30.4892 43.8278C30.4724 43.8617 30.4612 43.8982 30.456 43.9357C30.4403 44.0259 30.444 44.1185 30.467 44.2072L30.4753 44.2404C30.5306 44.2985 30.5886 44.3539 30.6496 44.4113C30.7049 44.3698 30.7573 44.3254 30.8126 44.2839C30.8457 44.2563 30.8789 44.2284 30.915 44.2009C30.9206 44.1288 30.9289 44.0458 30.9371 43.9543V43.9516C31.009 43.2094 31.2052 41.8744 31.5674 41.5116C32.3636 40.8995 33.3952 41.5604 32.6373 42.4637L32.6375 42.4647ZM30.9345 43.954C30.8818 43.9762 30.8294 43.9985 30.7824 44.0234H30.7797C30.7353 44.0456 30.6912 44.0678 30.6469 44.0927C30.6413 44.0954 30.6386 44.0983 30.633 44.101C30.575 44.0456 30.517 43.9902 30.456 43.9347C30.4403 44.025 30.444 44.1176 30.467 44.2062L30.4753 44.2394C30.5306 44.2975 30.5886 44.353 30.6496 44.4103C30.7049 44.3688 30.7573 44.3244 30.8126 44.2829C30.8457 44.2553 30.8789 44.2275 30.915 44.1999C30.9206 44.1279 30.9289 44.0448 30.9371 43.9533L30.9345 43.954Z" fill="#F1D914"/>
<path d="M47.846 80.2508C49.8505 80.2108 60.6177 79.9012 62.3833 79.9773C62.4833 79.627 65.8304 83.9243 65.9118 83.9509C65.966 84.0082 66.0056 84.0779 66.0271 84.1539C66.0487 84.2299 66.0515 84.31 66.0354 84.3874C66.0194 84.4647 65.9849 84.537 65.9349 84.5981C65.8849 84.6592 65.8208 84.7073 65.7483 84.7383C65.5516 84.8581 48.1933 84.5363 47.9829 84.5783C47.892 84.5769 47.8033 84.5497 47.727 84.5C47.6508 84.4502 47.5901 84.3799 47.5521 84.2971L47.4351 84.0368C47.4231 83.5915 47.2774 81.3153 47.408 80.9261C47.376 80.8531 47.3625 80.7732 47.3689 80.6936C47.3753 80.6141 47.4013 80.5374 47.4446 80.4704C47.4879 80.4034 47.5472 80.3482 47.617 80.3099C47.6868 80.2715 47.7651 80.2511 47.8448 80.2505L47.846 80.2508Z" fill="#3F3D56"/>
<path opacity="0.17" d="M47.436 84.0366C47.5379 84.2808 47.6683 84.5901 47.9829 84.5786L65.565 84.7764C65.6481 84.7754 65.7296 84.7531 65.8017 84.7115C65.8737 84.6699 65.9339 84.6104 65.9763 84.5388C66.0188 84.4672 66.0422 84.3858 66.0443 84.3025C66.0463 84.2193 66.027 84.1369 65.988 84.0632L47.436 84.0366Z" fill="black"/>
<path d="M62.3013 81.5701C62.4907 81.3606 67.1912 66.479 67.5835 66.3545L70.7925 63.8427L71.0793 63.7048C71.4783 63.5646 72.4351 63.6593 72.3488 64.0492C71.5948 66.3621 66.7454 79.5346 66.6392 81.5884L66.0542 84.2047C66.0372 84.2559 66.0085 84.3024 65.9705 84.3405C65.9324 84.3787 65.886 84.4074 65.8349 84.4245C65.7073 84.4759 65.568 84.4911 65.4323 84.4684C65.2846 84.4669 65.139 84.4341 65.0049 84.3721C64.8708 84.3101 64.7513 84.2204 64.6544 84.1088C64.6122 84.0172 62.0818 81.6236 62.3013 81.5701Z" fill="#3F3D56"/>
<path opacity="0.17" d="M70.7934 63.8425L64.6553 84.1098C64.8605 84.4423 65.8212 84.675 66.0444 84.239C66.0483 84.239 72.3414 64.0613 72.3478 64.0491C72.4148 63.5637 71.1611 63.5483 70.7934 63.8425Z" fill="black"/>
<path d="M70.6085 64.6719L67.4911 67.4513L63.9917 78.0847L65.6182 78.9924L70.6085 64.6719Z" fill="#F1D914"/>
<path d="M61.6249 80.5093C61.4843 81.5411 62.1519 83.2604 57.4448 83.547H57.4097C56.7931 83.5873 56.1505 83.6012 55.5127 83.588C54.9897 83.59 54.4686 83.5736 53.9671 83.5392H53.932C48.5216 83.1871 50.5597 81.1319 50.4893 80.1494L54.1425 80.1821L61.6946 80.2476C61.6544 80.3293 61.6307 80.4183 61.6249 80.5093Z" fill="#2F2E41"/>
<path d="M99.8333 167.538C99.659 168.154 0.187901 168.154 0 167.54C0.17401 166.923 99.6451 166.923 99.8333 167.538Z" fill="#F2F2F2"/>
<path d="M72.631 69.4084C72.2437 69.4019 71.8696 69.5496 71.5909 69.8191C71.3121 70.0886 71.1516 70.4579 71.1444 70.846V84.7532H42.6209C42.4283 84.7465 42.2363 84.7788 42.0564 84.8481C41.8765 84.9173 41.7123 85.0221 41.5737 85.1563C41.4351 85.2905 41.3249 85.4512 41.2496 85.6289C41.1743 85.8067 41.1355 85.9978 41.1355 86.1909C41.1355 86.3839 41.1743 86.5751 41.2496 86.7528C41.3249 86.9305 41.4351 87.0913 41.5737 87.2254C41.7123 87.3596 41.8765 87.4644 42.0564 87.5337C42.2363 87.6029 42.4283 87.6352 42.6209 87.6285H71.1444V167.612H74.1177V70.8462C74.1105 70.4582 73.9499 70.0889 73.6712 69.8194C73.3924 69.5498 73.0184 69.4021 72.631 69.4087V69.4084Z" fill="#F2F2F2"/>
<path d="M151.004 98.7552C144.824 101.282 137.838 103.208 129.976 104.395C124.866 105.152 119.713 105.59 114.549 105.706C110.028 105.82 105.268 105.718 100.267 105.4V6.24469C100.268 5.74806 100.465 5.272 100.816 4.92107C101.167 4.57015 101.643 4.37305 102.138 4.37305L102.885 4.37573L105.878 4.38379H105.929L186.275 4.58424H186.64L189.544 4.59229C189.96 5.93576 190.348 7.31976 190.707 8.74429C197.942 37.5329 192.599 81.7486 151.004 98.7552Z" fill="#F2F2F2"/>
<path d="M118.19 46.1035C118.239 49.3839 113.094 49.3842 113.142 46.1035C113.095 42.8229 118.239 42.8229 118.19 46.1035Z" fill="#F1D914"/>
<path d="M162.611 50.1979H113.894C113.695 50.1979 113.504 50.2771 113.364 50.418C113.223 50.559 113.144 50.7502 113.144 50.9495C113.144 51.1488 113.223 51.34 113.364 51.481C113.504 51.6219 113.695 51.7011 113.894 51.7011H162.611C163.598 51.7172 163.573 50.1818 162.611 50.1979Z" fill="#CCCCCC"/>
<path d="M145.291 53.1715H113.894C113.695 53.1715 113.504 53.2508 113.363 53.392C113.222 53.5332 113.143 53.7247 113.143 53.9244C113.143 54.1241 113.222 54.3156 113.363 54.4568C113.504 54.5981 113.695 54.6774 113.894 54.6774H145.291C146.273 54.6908 146.257 53.158 145.291 53.1715Z" fill="#CCCCCC"/>
<path d="M162.611 27.8526H113.894C113.695 27.8526 113.504 27.932 113.363 28.0732C113.222 28.2144 113.143 28.4059 113.143 28.6056C113.143 28.8053 113.222 28.9968 113.363 29.138C113.504 29.2792 113.695 29.3586 113.894 29.3586H162.611C163.598 29.372 163.573 27.838 162.611 27.8526Z" fill="#F1D914"/>
<path d="M145.291 30.8297H113.894C113.695 30.8297 113.504 30.909 113.363 31.0502C113.222 31.1914 113.143 31.3829 113.143 31.5826C113.143 31.7823 113.222 31.9738 113.363 32.1151C113.504 32.2563 113.695 32.3356 113.894 32.3356H145.291C146.273 32.349 146.257 30.8162 145.291 30.8297Z" fill="#F1D914"/>
<path d="M145.291 33.9469H113.894C113.695 33.9469 113.504 34.0262 113.363 34.1674C113.222 34.3086 113.143 34.5001 113.143 34.6998C113.143 34.8995 113.222 35.091 113.363 35.2323C113.504 35.3735 113.695 35.4528 113.894 35.4528H145.291C146.273 35.4662 146.257 33.9322 145.291 33.9469Z" fill="#F1D914"/>
<path d="M118.19 65.5882C118.239 68.8686 113.094 68.8689 113.142 65.5882C113.095 62.3078 118.239 62.3078 118.19 65.5882Z" fill="#F1D914"/>
<path d="M162.611 69.6798H113.894C113.695 69.6798 113.504 69.7591 113.363 69.9003C113.222 70.0415 113.143 70.233 113.143 70.4327C113.143 70.6324 113.222 70.8239 113.363 70.9651C113.504 71.1064 113.695 71.1857 113.894 71.1857H162.611C163.598 71.1991 163.573 69.6663 162.611 69.6798Z" fill="#CCCCCC"/>
<path d="M145.291 72.6563H113.894C113.695 72.6563 113.504 72.7357 113.363 72.8769C113.222 73.0181 113.143 73.2096 113.143 73.4093C113.143 73.609 113.222 73.8005 113.363 73.9417C113.504 74.0829 113.695 74.1622 113.894 74.1622H145.291C146.273 74.1749 146.257 72.6429 145.291 72.6563Z" fill="#CCCCCC"/>
<path d="M117.388 23.7805C117.435 27.0365 112.33 27.0365 112.378 23.7805C112.33 20.5243 117.435 20.5243 117.388 23.7805Z" fill="#F1D914"/>
<path d="M187.556 4.94834C187.168 4.5577 102.537 5.69764 102.633 4.55429C102.217 4.12288 189.877 3.137 187.556 4.94834Z" fill="#CACACA"/>
<path d="M98.5209 8.74689C100.932 8.74689 102.886 6.78883 102.886 4.37344C102.886 1.95806 100.932 0 98.5209 0C96.1098 0 94.1553 1.95806 94.1553 4.37344C94.1553 6.78883 96.1098 8.74689 98.5209 8.74689Z" fill="#CACACA"/>
<path d="M190.634 8.74689C193.045 8.74689 195 6.78883 195 4.37344C195 1.95806 193.045 0 190.634 0C188.223 0 186.269 1.95806 186.269 4.37344C186.269 6.78883 188.223 8.74689 190.634 8.74689Z" fill="#CACACA"/>
<path d="M151.004 98.7552C144.824 101.282 137.838 103.208 129.976 104.395C124.866 105.152 119.713 105.59 114.549 105.706C109.899 105.652 105.138 105.55 100.267 105.4V101.943C106.825 96.4314 134.915 95.5512 151.004 98.7552Z" fill="#F1D914"/>
<path d="M47.4378 81.5826C47.1545 81.2688 46.8064 81.0204 46.4178 80.8546C46.0292 80.6888 45.6093 80.6095 45.1871 80.6223C44.7649 80.6351 44.3505 80.7396 43.9726 80.9285C43.5947 81.1175 43.2623 81.3865 42.9984 81.7169L36.6256 79.9258L34.5938 83.5392L43.6288 85.9436C44.217 86.3471 44.9324 86.5205 45.6396 86.431C46.3469 86.3415 46.9968 85.9952 47.4662 85.4578C47.9356 84.9204 48.192 84.2291 48.1868 83.515C48.1816 82.8009 47.9151 82.1135 47.4378 81.5831V81.5826Z" fill="#ED9DA0"/>
<path d="M33.2209 77.3368C32.759 77.0958 32.2974 76.8604 31.8468 76.6417C30.8681 76.157 29.9585 75.7332 29.2896 75.4453C29.6184 74.447 29.8789 73.4273 30.0694 72.3935C30.8547 68.4273 31.3882 62.2454 27.808 62.4283C27.2899 62.4657 26.7816 62.5895 26.3041 62.7945C23.5146 64.3483 22.558 70.5274 21.308 73.0781C21.0887 73.3745 18.8724 76.4542 19.2289 78.7338C20.2408 80.9494 23.4588 82.844 26.4752 84.0765L26.4779 84.0792C27.0584 84.3175 27.6335 84.5306 28.1809 84.7188C28.8058 84.9322 29.3995 85.1095 29.9337 85.2479C30.998 85.5248 31.8303 85.6496 32.2312 85.5941C32.761 85.5979 33.2894 85.5365 33.8043 85.4113L34.438 84.2923L34.8279 83.5999L36.8656 79.9938L37.0756 79.6227C35.8485 78.7669 34.5601 78.0028 33.2209 77.3368Z" fill="#090814"/>
</g>
<defs>
<clipPath id="clip0_43_2536">
<rect width="195" height="168" fill="white"/>
</clipPath>
</defs>
</svg>
