<svg width="200" height="167" viewBox="0 0 200 167" fill="none" xmlns="http://www.w3.org/2000/svg">
<g clip-path="url(#clip0_43_2438)">
<path d="M71.593 60.6066L52.2383 49.4399L41.0638 68.7811L60.4186 79.9477L71.593 60.6066Z" fill="#E8E8E8"/>
<path d="M170.944 50.7732C180.013 50.7732 187.364 43.4271 187.364 34.3651C187.364 25.3032 180.013 17.957 170.944 17.957C161.876 17.957 154.525 25.3032 154.525 34.3651C154.525 43.4271 161.876 50.7732 170.944 50.7732Z" fill="#F1D914"/>
<path d="M160.905 11.6127C162.951 16.6273 168.16 19.246 168.16 19.246C168.16 19.246 170.05 13.7343 168.003 8.71968C165.957 3.70506 160.748 1.08643 160.748 1.08643C160.748 1.08643 158.858 6.5981 160.905 11.6127Z" fill="#3F3D56"/>
<path d="M162.831 10.2427C167.148 13.5155 168.332 19.2204 168.332 19.2204C168.332 19.2204 162.516 19.6192 158.198 16.3465C153.88 13.0738 152.696 7.36883 152.696 7.36883C152.696 7.36883 158.513 6.97001 162.831 10.2427Z" fill="#F1D914"/>
<path d="M168.981 8.74616C166.976 13.7774 168.911 19.2734 168.911 19.2734C168.911 19.2734 174.098 16.6122 176.103 11.5809C178.109 6.54971 176.173 1.05371 176.173 1.05371C176.173 1.05371 170.986 3.71494 168.981 8.74616Z" fill="#3F3D56"/>
<path d="M171.319 9.09377C172.159 14.444 169.053 19.3748 169.053 19.3748C169.053 19.3748 164.586 15.6312 163.746 10.281C162.906 4.93083 166.012 0 166.012 0C166.012 0 170.479 3.74357 171.319 9.09377Z" fill="#F1D914"/>
<path d="M170.041 41.0719C174.701 41.0719 178.479 37.2968 178.479 32.6399C178.479 27.9831 174.701 24.208 170.041 24.208C165.381 24.208 161.604 27.9831 161.604 32.6399C161.604 37.2968 165.381 41.0719 170.041 41.0719Z" fill="#E8E8E8"/>
<path d="M166.497 33.0231C168.008 33.0231 169.233 31.7987 169.233 30.2884C169.233 28.7781 168.008 27.5537 166.497 27.5537C164.985 27.5537 163.76 28.7781 163.76 30.2884C163.76 31.7987 164.985 33.0231 166.497 33.0231Z" fill="#3F3D56"/>
<path d="M194.983 135.568C193.991 135.568 193.021 135.274 192.196 134.723C191.371 134.172 190.727 133.389 190.348 132.473C189.968 131.557 189.869 130.549 190.062 129.576C190.256 128.603 190.734 127.71 191.435 127.009C192.137 126.308 193.031 125.83 194.004 125.637C194.977 125.443 195.986 125.543 196.903 125.922C197.82 126.302 198.603 126.944 199.155 127.769C199.706 128.593 200 129.563 200 130.554C199.999 131.883 199.469 133.158 198.529 134.098C197.588 135.037 196.313 135.566 194.983 135.568ZM194.983 125.996C194.081 125.996 193.199 126.264 192.449 126.764C191.699 127.265 191.114 127.977 190.769 128.81C190.424 129.643 190.334 130.559 190.51 131.443C190.686 132.327 191.12 133.14 191.758 133.777C192.396 134.414 193.208 134.848 194.093 135.024C194.978 135.2 195.895 135.11 196.728 134.765C197.562 134.42 198.274 133.836 198.775 133.086C199.276 132.337 199.544 131.456 199.544 130.554C199.543 129.346 199.062 128.187 198.207 127.333C197.351 126.478 196.192 125.998 194.983 125.996Z" fill="#3F3D56"/>
<path d="M60.8894 83.8367C59.8971 83.8367 58.9271 83.5427 58.1021 82.9918C57.277 82.4409 56.634 81.6579 56.2542 80.7418C55.8745 79.8257 55.7751 78.8176 55.9687 77.8451C56.1623 76.8725 56.6401 75.9792 57.3418 75.278C58.0434 74.5769 58.9374 74.0994 59.9106 73.9059C60.8839 73.7125 61.8926 73.8117 62.8094 74.1912C63.7261 74.5707 64.5097 75.2133 65.061 76.0378C65.6123 76.8622 65.9065 77.8316 65.9065 78.8232C65.905 80.1524 65.376 81.4267 64.4354 82.3666C63.4948 83.3065 62.2196 83.8352 60.8894 83.8367ZM60.8894 74.2654C59.9873 74.2654 59.1055 74.5327 58.3555 75.0335C57.6054 75.5343 57.0208 76.2461 56.6756 77.079C56.3304 77.9118 56.2401 78.8282 56.4161 79.7123C56.592 80.5965 57.0264 81.4086 57.6643 82.046C58.3022 82.6834 59.1149 83.1175 59.9996 83.2934C60.8844 83.4692 61.8014 83.379 62.6348 83.034C63.4683 82.689 64.1806 82.1049 64.6818 81.3553C65.1829 80.6058 65.4504 79.7246 65.4504 78.8232C65.4491 77.6148 64.9681 76.4562 64.113 75.6018C63.258 74.7473 62.0987 74.2667 60.8894 74.2654Z" fill="#3F3D56"/>
<path d="M181.423 36.8086L154.746 66.562C156.18 67.674 157.37 69.0692 158.241 70.6607C159.112 72.2522 159.646 74.0059 159.81 75.8127C159.973 77.6194 159.763 79.4404 159.192 81.1623C158.62 82.8841 157.7 84.47 156.489 85.8211C155.277 87.1722 153.801 88.2596 152.15 89.0156C150.5 89.7715 148.712 90.1799 146.897 90.2151C145.082 90.2504 143.279 89.9119 141.601 89.2206C139.922 88.5293 138.404 87.5001 137.141 86.1971L99.9819 127.642C110.696 135.962 123.883 140.47 137.451 140.45C171.24 140.45 198.632 113.078 198.632 79.3124C198.652 63.4458 192.478 48.197 181.423 36.8086Z" fill="#E8E8E8"/>
<path d="M147.092 85.6598C151.501 85.6598 155.074 82.0888 155.074 77.6837C155.074 73.2786 151.501 69.7075 147.092 69.7075C142.684 69.7075 139.111 73.2786 139.111 77.6837C139.111 82.0888 142.684 85.6598 147.092 85.6598Z" fill="#E8E8E8"/>
<path d="M105.352 24.0997C109.606 24.0997 113.055 20.653 113.055 16.4014C113.055 12.1498 109.606 8.70312 105.352 8.70312C101.097 8.70312 97.6479 12.1498 97.6479 16.4014C97.6479 20.653 101.097 24.0997 105.352 24.0997Z" fill="#2F2E41"/>
<path d="M90.8647 70.8125L92.6519 105.637C92.6519 105.637 92.354 130.64 94.1412 130.938C95.9284 131.235 99.2048 133.319 100.098 131.831C100.992 130.342 105.46 84.5044 105.46 84.5044C105.46 84.5044 106.651 132.128 110.226 132.426C113.8 132.724 117.97 130.938 118.566 131.235C119.161 131.533 118.863 71.7054 118.863 71.7054L90.8647 70.8125Z" fill="#2F2E41"/>
<path d="M96.2262 130.64C96.2262 130.64 94.1412 130.64 93.5455 131.533C92.9498 132.426 90.8647 136.891 90.8647 136.891C90.8647 136.891 86.9926 140.444 91.1626 140.742C95.3326 141.039 97.4176 140.165 97.4176 139.57C97.4176 138.975 97.4176 137.486 98.3112 137.189C99.2048 136.891 100.098 135.403 100.098 134.807C100.098 134.212 99.2048 130.343 96.2262 130.64Z" fill="#2F2E41"/>
<path d="M112.311 130.938C112.311 130.938 110.821 136.891 112.311 137.189C113.8 137.486 114.693 138.081 114.991 138.974C115.289 139.867 118.268 140.9 120.651 140.602C123.034 140.305 124.225 138.677 123.331 137.784C122.438 136.891 117.97 131.831 117.672 130.938C117.374 130.045 112.311 130.938 112.311 130.938Z" fill="#2F2E41"/>
<path d="M101.885 21.998C101.885 21.998 101.29 26.4628 100.098 27.0581C98.9068 27.6533 100.694 30.9275 100.694 30.9275L106.055 31.8204L110.821 27.951C110.821 27.951 109.928 22.2957 109.928 21.998C109.928 21.7004 101.885 21.998 101.885 21.998Z" fill="#9F616A"/>
<path opacity="0.1" d="M101.885 21.998C101.885 21.998 101.29 26.4628 100.098 27.0581C98.9068 27.6533 100.694 30.9275 100.694 30.9275L106.055 31.8204L110.821 27.951C110.821 27.951 109.928 22.2957 109.928 21.998C109.928 21.7004 101.885 21.998 101.885 21.998Z" fill="black"/>
<path d="M105.162 25.8677C109.11 25.8677 112.311 22.6694 112.311 18.7242C112.311 14.7789 109.11 11.5806 105.162 11.5806C101.214 11.5806 98.0134 14.7789 98.0134 18.7242C98.0134 22.6694 101.214 25.8677 105.162 25.8677Z" fill="#9F616A"/>
<path d="M105.013 30.779C105.013 30.779 102.034 25.719 100.545 26.0166C99.0558 26.3143 94.439 27.0584 93.8433 26.7607C93.2475 26.4631 89.3754 40.155 89.3754 40.155C89.3754 40.155 85.2054 67.2411 87.8861 70.5152C90.5668 73.7893 99.8004 72.0034 100.992 75.2776C102.183 78.5517 120.948 73.4917 120.948 71.7058C120.948 69.9199 121.246 42.5361 121.544 40.4526C121.842 38.3691 118.863 27.356 118.863 27.356C118.863 27.356 111.864 25.4213 110.672 26.0166C109.481 26.6119 108.885 28.3978 105.013 30.779Z" fill="#575A88"/>
<path d="M94.439 27.6534L93.8433 26.7604C93.8433 26.7604 87.5883 27.6534 85.8011 27.3557C84.014 27.0581 78.6525 27.6534 78.6525 27.6534C78.6525 27.6534 79.844 24.3792 81.0354 24.0816C82.2268 23.7839 83.7161 22.891 83.7161 22.891C83.7161 22.891 80.7375 18.4262 83.7161 16.938C83.7161 16.938 70.0146 22.2957 69.121 27.3557C68.2275 32.4158 89.9711 40.1546 89.9711 40.1546L94.439 27.6534Z" fill="#575A88"/>
<path d="M116.48 27.9511L118.863 27.3558L130.778 28.5464L126.906 24.3793C126.906 24.3793 129.288 21.4028 127.799 19.9146C127.799 19.9146 143.586 25.8675 141.798 29.737C140.011 33.6064 121.246 40.4524 120.353 40.75C119.459 41.0477 116.48 27.9511 116.48 27.9511Z" fill="#575A88"/>
<path d="M85.3388 17.7398C86.0761 17.8862 86.7062 18.3465 87.3096 18.7946C87.8946 19.2122 88.4556 19.6624 88.9899 20.1431C91.6988 22.6739 92.6947 26.4922 93.5562 30.0965C92.9429 30.613 91.9413 30.1835 91.5296 29.4956C91.1179 28.8077 91.0894 27.9675 90.9277 27.1824C90.7659 26.3973 90.3704 25.5536 89.6059 25.3111C89.7667 25.8094 89.3787 26.3505 88.8936 26.5484C88.4086 26.7463 87.8622 26.6916 87.3415 26.6337C87.0994 26.6204 86.8612 26.5663 86.6373 26.4734C86.2331 26.2781 85.9969 25.858 85.7769 25.4669C85.2036 24.4475 84.5729 23.4615 83.8879 22.5135C83.7327 22.2685 83.5303 22.0567 83.2926 21.8904C82.3385 21.3084 81.3139 20.5472 81.789 19.1655C82.1811 18.025 84.2978 17.5333 85.3388 17.7398Z" fill="#9F616A"/>
<path d="M124.941 19.511C123.869 19.5643 122.945 20.2615 122.16 20.993C118.875 24.0755 116.759 28.2 116.174 32.6651C116.135 32.9645 116.124 33.317 116.353 33.5132C116.611 33.734 117.036 33.6033 117.248 33.3381C117.434 33.0526 117.55 32.7276 117.587 32.3891C117.796 31.3769 118.151 30.4006 118.642 29.4911C118.894 29.0247 119.244 28.5336 119.768 28.4511C120.548 28.3281 121.131 29.1538 121.876 29.4152C122.756 29.7238 123.741 29.1712 124.276 28.4081C124.81 27.6451 125.019 26.7098 125.314 25.826C125.609 24.9423 126.045 24.0361 126.849 23.5648C127.705 23.0629 129.676 22.7142 128.84 21.3056C128.233 20.2821 126.063 19.4551 124.941 19.511Z" fill="#9F616A"/>
<path d="M97.4194 14.7711C97.4194 14.7711 95.5198 9.83554 98.2742 8.22199L99.0341 10.405C99.0341 10.405 105.968 6.22879 107.772 7.17793L106.063 9.45588C106.063 9.45588 114.136 9.45589 114.706 12.5881L111.857 12.683C111.857 12.683 114.896 14.6762 114.991 17.9033L108.912 18.2829L111.857 19.9914C111.857 19.9914 100.839 21.51 98.1793 17.144L97.4194 14.7711Z" fill="#2F2E41"/>
<path d="M79.0994 20.3609L83.5673 16.7891C83.5673 16.7891 82.078 21.2538 83.5673 22.742L77.908 23.9326L79.0994 20.3609Z" fill="#575A88"/>
<path d="M131.225 22.4448L127.352 19.4683C127.352 19.4683 127.948 23.3377 126.757 24.2307C125.565 25.1236 130.033 25.4212 130.033 25.4212L131.225 22.4448Z" fill="#575A88"/>
<path d="M40.9655 148.681C50.0338 148.681 57.3851 141.335 57.3851 132.273C57.3851 123.211 50.0338 115.865 40.9655 115.865C31.8972 115.865 24.5459 123.211 24.5459 132.273C24.5459 141.335 31.8972 148.681 40.9655 148.681Z" fill="#F1D914"/>
<path d="M25.3836 112.886C28.6574 117.202 34.366 118.386 34.366 118.386C34.366 118.386 34.7668 112.574 31.493 108.258C28.2192 103.942 22.5106 102.757 22.5106 102.757C22.5106 102.757 22.1098 108.57 25.3836 112.886Z" fill="#3F3D56"/>
<path d="M26.8896 111.065C31.9072 113.111 34.5261 118.317 34.5261 118.317C34.5261 118.317 29.01 120.204 23.9925 118.157C18.9749 116.111 16.356 110.905 16.356 110.905C16.356 110.905 21.872 109.018 26.8896 111.065Z" fill="#F1D914"/>
<path d="M32.4445 108.031C31.8082 113.409 35.099 118.219 35.099 118.219C35.099 118.219 39.4214 114.309 40.0577 108.93C40.694 103.552 37.4032 98.7427 37.4032 98.7427C37.4032 98.7427 33.0807 102.653 32.4445 108.031Z" fill="#3F3D56"/>
<path d="M34.7931 107.763C36.9879 112.715 35.2625 118.28 35.2625 118.28C35.2625 118.28 29.9786 115.817 27.7837 110.866C25.5889 105.914 27.3143 100.349 27.3143 100.349C27.3143 100.349 32.5983 102.811 34.7931 107.763Z" fill="#F1D914"/>
<path d="M34.63 141.55C39.2901 141.55 43.0679 137.775 43.0679 133.118C43.0679 128.462 39.2901 124.687 34.63 124.687C29.9699 124.687 26.1921 128.462 26.1921 133.118C26.1921 137.775 29.9699 141.55 34.63 141.55Z" fill="#E8E8E8"/>
<path d="M31.4292 138.529C32.9406 138.529 34.1658 137.305 34.1658 135.794C34.1658 134.284 32.9406 133.06 31.4292 133.06C29.9178 133.06 28.6926 134.284 28.6926 135.794C28.6926 137.305 29.9178 138.529 31.4292 138.529Z" fill="#3F3D56"/>
<path d="M105.587 141.037C114.656 141.037 122.007 133.691 122.007 124.629C122.007 115.567 114.656 108.221 105.587 108.221C96.519 108.221 89.1677 115.567 89.1677 124.629C89.1677 133.691 96.519 141.037 105.587 141.037Z" fill="#F1D914"/>
<path d="M98.4181 100.817C99.8333 106.045 104.681 109.282 104.681 109.282C104.681 109.282 107.234 104.044 105.818 98.8165C104.403 93.5887 99.5558 90.3511 99.5558 90.3511C99.5558 90.3511 97.0029 95.5892 98.4181 100.817Z" fill="#3F3D56"/>
<path d="M100.498 99.6934C104.381 103.471 104.855 109.278 104.855 109.278C104.855 109.278 99.0337 108.96 95.1504 105.183C91.267 101.405 90.7927 95.5981 90.7927 95.5981C90.7927 95.5981 96.6145 95.9158 100.498 99.6934Z" fill="#F1D914"/>
<path d="M106.786 98.9626C104.177 103.71 105.423 109.402 105.423 109.402C105.423 109.402 110.897 107.397 113.506 102.649C116.114 97.9023 114.868 92.2104 114.868 92.2104C114.868 92.2104 109.394 94.2154 106.786 98.9626Z" fill="#3F3D56"/>
<path d="M109.063 99.5945C109.24 105.007 105.552 109.52 105.552 109.52C105.552 109.52 101.578 105.257 101.401 99.8438C101.225 94.431 104.913 89.9185 104.913 89.9185C104.913 89.9185 108.887 94.1817 109.063 99.5945Z" fill="#F1D914"/>
<path d="M104.903 131.238C109.563 131.238 113.341 127.463 113.341 122.806C113.341 118.149 109.563 114.374 104.903 114.374C100.243 114.374 96.4653 118.149 96.4653 122.806C96.4653 127.463 100.243 131.238 104.903 131.238Z" fill="#E8E8E8"/>
<path d="M104.903 120.755C106.414 120.755 107.64 119.531 107.64 118.02C107.64 116.51 106.414 115.286 104.903 115.286C103.392 115.286 102.167 116.51 102.167 118.02C102.167 119.531 103.392 120.755 104.903 120.755Z" fill="#3F3D56"/>
<path d="M150.969 140.581H65.4504V141.037H150.969V140.581Z" fill="#2F2E41"/>
<path d="M185.519 45.7788C188.101 45.7788 190.194 44.1463 190.194 42.1326C190.194 40.1188 188.101 38.4863 185.519 38.4863C182.937 38.4863 180.844 40.1188 180.844 42.1326C180.844 44.1463 182.937 45.7788 185.519 45.7788Z" fill="#F1D914"/>
<path d="M56.3601 119.167L63.8374 113.183L56.3601 119.167Z" fill="#3F3D56"/>
<path d="M56.8386 123.778C59.0984 121.953 61.4377 120.233 63.8566 118.618L56.8386 123.778Z" fill="#3F3D56"/>
<path d="M61.8259 123.292C64.467 122.037 66.8765 120.345 68.9524 118.287L61.8259 123.292Z" fill="#3F3D56"/>
<path d="M43.1015 147.873C45.3686 147.873 47.2064 146.037 47.2064 143.771C47.2064 141.506 45.3686 139.669 43.1015 139.669C40.8344 139.669 38.9966 141.506 38.9966 143.771C38.9966 146.037 40.8344 147.873 43.1015 147.873Z" fill="#3F3D56"/>
<path d="M22.577 167C35.0459 167 45.1539 165.783 45.1539 164.282C45.1539 162.78 35.0459 161.563 22.577 161.563C10.1081 161.563 0 162.78 0 164.282C0 165.783 10.1081 167 22.577 167Z" fill="#E8E8E8"/>
<path d="M144.128 140.809C143.135 140.809 142.165 140.515 141.34 139.964C140.515 139.413 139.872 138.63 139.492 137.714C139.113 136.798 139.013 135.79 139.207 134.817C139.401 133.845 139.878 132.951 140.58 132.25C141.282 131.549 142.176 131.072 143.149 130.878C144.122 130.685 145.131 130.784 146.048 131.163C146.964 131.543 147.748 132.185 148.299 133.01C148.851 133.834 149.145 134.804 149.145 135.795C149.143 137.125 148.614 138.399 147.674 139.339C146.733 140.279 145.458 140.807 144.128 140.809ZM144.128 131.238C143.226 131.238 142.344 131.505 141.594 132.006C140.844 132.506 140.259 133.218 139.914 134.051C139.569 134.884 139.478 135.8 139.654 136.685C139.83 137.569 140.265 138.381 140.903 139.018C141.54 139.656 142.353 140.09 143.238 140.266C144.123 140.441 145.04 140.351 145.873 140.006C146.707 139.661 147.419 139.077 147.92 138.327C148.421 137.578 148.689 136.697 148.689 135.795C148.687 134.587 148.206 133.428 147.351 132.574C146.496 131.719 145.337 131.239 144.128 131.238Z" fill="#3F3D56"/>
</g>
<defs>
<clipPath id="clip0_43_2438">
<rect width="200" height="167" fill="white"/>
</clipPath>
</defs>
</svg>
