<svg width="197" height="146" viewBox="0 0 197 146" fill="none" xmlns="http://www.w3.org/2000/svg">
<g clip-path="url(#clip0_43_2490)">
<path d="M196.753 9.07817H0.246381C0.179482 9.07817 0.115323 9.05159 0.0680185 9.00429C0.020714 8.95699 -0.00585938 8.89284 -0.00585938 8.82595C-0.00585938 8.75905 0.020714 8.6949 0.0680185 8.6476C0.115323 8.6003 0.179482 8.57373 0.246381 8.57373H196.753C196.82 8.57373 196.884 8.6003 196.931 8.6476C196.979 8.6949 197.005 8.75905 197.005 8.82595C197.005 8.89284 196.979 8.95699 196.931 9.00429C196.884 9.05159 196.82 9.07817 196.753 9.07817Z" fill="#CACACA"/>
<path d="M5.7992 5.54778C7.29797 5.54778 8.51296 4.30587 8.51296 2.77389C8.51296 1.24191 7.29797 0 5.7992 0C4.30044 0 3.08545 1.24191 3.08545 2.77389C3.08545 4.30587 4.30044 5.54778 5.7992 5.54778Z" fill="#3F3D56"/>
<path d="M15.1737 5.54778C16.6725 5.54778 17.8875 4.30587 17.8875 2.77389C17.8875 1.24191 16.6725 0 15.1737 0C13.675 0 12.46 1.24191 12.46 2.77389C12.46 4.30587 13.675 5.54778 15.1737 5.54778Z" fill="#3F3D56"/>
<path d="M24.5482 5.54778C26.047 5.54778 27.262 4.30587 27.262 2.77389C27.262 1.24191 26.047 0 24.5482 0C23.0495 0 21.8345 1.24191 21.8345 2.77389C21.8345 4.30587 23.0495 5.54778 24.5482 5.54778Z" fill="#3F3D56"/>
<path d="M191.136 1.69637H184.476C184.342 1.69637 184.214 1.64322 184.119 1.54862C184.024 1.45402 183.971 1.32572 183.971 1.19193C183.971 1.05815 184.024 0.929845 184.119 0.835245C184.214 0.740645 184.342 0.6875 184.476 0.6875H191.136C191.269 0.6875 191.398 0.740645 191.492 0.835245C191.587 0.929845 191.64 1.05815 191.64 1.19193C191.64 1.32572 191.587 1.45402 191.492 1.54862C191.398 1.64322 191.269 1.69637 191.136 1.69637Z" fill="#3F3D56"/>
<path d="M191.136 3.58797H184.476C184.342 3.58797 184.214 3.53482 184.119 3.44022C184.024 3.34562 183.971 3.21732 183.971 3.08354C183.971 2.94975 184.024 2.82145 184.119 2.72685C184.214 2.63225 184.342 2.5791 184.476 2.5791H191.136C191.269 2.5791 191.398 2.63225 191.492 2.72685C191.587 2.82145 191.64 2.94975 191.64 3.08354C191.64 3.21732 191.587 3.34562 191.492 3.44022C191.398 3.53482 191.269 3.58797 191.136 3.58797Z" fill="#3F3D56"/>
<path d="M191.136 5.47908H184.476C184.342 5.47908 184.214 5.42594 184.119 5.33134C184.024 5.23674 183.971 5.10843 183.971 4.97465C183.971 4.84087 184.024 4.71256 184.119 4.61796C184.214 4.52336 184.342 4.47021 184.476 4.47021H191.136C191.269 4.47021 191.398 4.52336 191.492 4.61796C191.587 4.71256 191.64 4.84087 191.64 4.97465C191.64 5.10843 191.587 5.23674 191.492 5.33134C191.398 5.42594 191.269 5.47908 191.136 5.47908Z" fill="#3F3D56"/>
<path d="M106.378 49.1985C106.965 49.5376 107.454 50.0242 107.796 50.6101C108.137 51.1961 108.32 51.861 108.325 52.5392C108.331 53.2174 108.159 53.8852 107.827 54.4766C107.495 55.068 107.014 55.5624 106.432 55.911C105.851 56.2595 105.188 56.4501 104.51 56.4639C103.832 56.4776 103.162 56.314 102.566 55.9893C101.971 55.6646 101.471 55.19 101.115 54.6126C100.759 54.0351 100.561 53.3748 100.539 52.697L100.537 52.5708L100.539 52.4445C100.56 51.772 100.756 51.1167 101.107 50.5423C101.457 49.968 101.951 49.4942 102.539 49.1673C103.127 48.8404 103.79 48.6714 104.463 48.6769C105.135 48.6823 105.795 48.8621 106.378 49.1985ZM105.677 53.4598C105.641 53.424 105.597 53.3957 105.55 53.3766C105.503 53.3576 105.452 53.348 105.401 53.3485C105.35 53.349 105.299 53.3596 105.252 53.3796C105.205 53.3996 105.162 53.4287 105.127 53.4652C105.036 53.5578 104.928 53.6313 104.808 53.6815C104.689 53.7318 104.561 53.7576 104.431 53.7576C104.301 53.7576 104.173 53.7318 104.054 53.6815C103.934 53.6313 103.826 53.5578 103.735 53.4652C103.663 53.3915 103.564 53.3495 103.461 53.3485C103.358 53.3475 103.259 53.3875 103.185 53.4598C103.111 53.5321 103.069 53.6307 103.068 53.7339C103.067 53.8372 103.107 53.9366 103.179 54.0103C103.343 54.1768 103.537 54.3091 103.752 54.3994C103.967 54.4896 104.198 54.5361 104.431 54.5361C104.664 54.5361 104.895 54.4896 105.11 54.3994C105.325 54.3091 105.519 54.1768 105.683 54.0103C105.718 53.9738 105.747 53.9306 105.766 53.8832C105.785 53.8358 105.794 53.7851 105.794 53.7339C105.793 53.6828 105.783 53.6323 105.763 53.5853C105.743 53.5382 105.714 53.4956 105.677 53.4598ZM103.267 51.4014L103.217 51.4041C103.118 51.4153 103.027 51.464 102.963 51.5402C102.899 51.6164 102.867 51.7143 102.872 51.8138C102.878 51.9132 102.922 52.0066 102.995 52.0748C103.067 52.143 103.163 52.1807 103.263 52.1802L103.312 52.1775C103.411 52.1663 103.502 52.1176 103.566 52.0414C103.631 51.9652 103.663 51.8673 103.657 51.7678C103.651 51.6684 103.608 51.575 103.535 51.5068C103.462 51.4386 103.366 51.4009 103.267 51.4014ZM105.603 51.4014L105.554 51.4041C105.455 51.4153 105.364 51.464 105.3 51.5402C105.236 51.6164 105.203 51.7143 105.209 51.8138C105.215 51.9132 105.258 52.0066 105.331 52.0748C105.404 52.143 105.5 52.1807 105.599 52.1802L105.649 52.1775C105.748 52.1663 105.839 52.1176 105.903 52.0414C105.967 51.9652 106 51.8673 105.994 51.7678C105.988 51.6684 105.944 51.575 105.871 51.5068C105.799 51.4386 105.703 51.4009 105.603 51.4014Z" fill="#F1D914"/>
<path d="M147.766 126.331L147.7 126.327H144.42C144.321 126.328 144.225 126.292 144.15 126.226C144.075 126.161 144.027 126.07 144.014 125.971L144.011 125.923V122.056C144.012 121.985 144.031 121.915 144.067 121.853C144.103 121.792 144.155 121.741 144.217 121.705C144.391 121.607 144.538 121.466 144.644 121.297C144.751 121.127 144.814 120.934 144.828 120.734L144.831 120.653V120.246C144.832 120.086 144.864 119.927 144.927 119.779C144.989 119.631 145.08 119.497 145.194 119.384C145.308 119.271 145.443 119.181 145.592 119.121C145.741 119.06 145.9 119.029 146.06 119.03C146.373 119.029 146.673 119.147 146.902 119.359C147.13 119.572 147.268 119.864 147.288 120.176L147.29 120.246V121.868H148.11C148.41 121.867 148.7 121.976 148.925 122.174C149.15 122.372 149.295 122.646 149.331 122.944L149.338 123.014L149.339 123.085L149.331 123.164L148.919 125.205C148.765 125.859 148.31 126.331 147.78 126.331L147.766 126.331ZM142.856 126.327C142.651 126.329 142.452 126.253 142.301 126.114C142.149 125.975 142.056 125.784 142.039 125.579L142.036 125.519V122.679C142.037 122.474 142.116 122.276 142.257 122.126C142.397 121.976 142.59 121.884 142.795 121.87L142.856 121.868H143.267C143.367 121.868 143.463 121.904 143.538 121.97C143.613 122.036 143.661 122.128 143.673 122.227L143.677 122.274V125.923C143.676 126.022 143.639 126.118 143.572 126.193C143.505 126.267 143.413 126.314 143.314 126.325L143.267 126.327L142.856 126.327Z" fill="#F1D914"/>
<path d="M132.439 124.655C121.323 124.655 109.244 123.003 97.2451 119.827C82.4073 115.9 68.8027 109.971 57.9021 102.682L58.2249 102.2C69.074 109.453 82.6173 115.354 97.3938 119.266C110.747 122.801 124.2 124.438 136.295 124.006L136.315 124.587C135.038 124.633 133.746 124.655 132.439 124.655Z" fill="#090814"/>
<path d="M130.775 49.2152C127.164 48.0399 123.452 46.9455 119.738 45.9625C98.3684 40.3058 77.3623 38.2974 58.9891 40.1556L58.9307 39.5777C77.3722 37.7136 98.4503 39.7256 119.886 45.4011C123.61 46.3873 127.334 47.4844 130.955 48.6632L130.775 49.2152Z" fill="#090814"/>
<path d="M32.8534 94.4058C23.9468 85.6386 20.1848 76.4922 22.2607 68.6518C24.9237 58.5903 36.7591 51.6335 54.7299 49.5654L54.7962 50.1426C37.0752 52.1818 25.4217 58.9823 22.8234 68.8005C20.8032 76.4308 24.5104 85.3773 33.2619 93.9921L32.8534 94.4058Z" fill="#090814"/>
<path d="M153.647 121.052L153.461 120.502C163.403 117.141 169.621 111.727 171.444 104.844C173.76 96.0941 168.727 85.9408 157.273 76.2543C145.76 66.5184 129.157 58.4398 110.523 53.5074L110.671 52.9458C129.386 57.8999 146.069 66.0201 157.647 75.8107C169.282 85.6504 174.381 96.014 172.004 104.992C170.131 112.073 163.783 117.626 153.647 121.052Z" fill="#090814"/>
<path d="M54.7852 122.681C32.9427 112.995 16.1113 100.428 7.39185 87.2951L7.87587 86.9746C16.5349 100.017 33.2778 112.509 55.0202 122.151L54.7852 122.681Z" fill="#090814"/>
<path d="M141.55 97.4257C142.833 97.4257 143.873 96.3855 143.873 95.1023C143.873 93.8191 142.833 92.7788 141.55 92.7788C140.266 92.7788 139.226 93.8191 139.226 95.1023C139.226 96.3855 140.266 97.4257 141.55 97.4257Z" fill="#E6E6E6"/>
<path d="M98.3134 32.9809C99.5968 32.9809 100.637 31.9406 100.637 30.6574C100.637 29.3742 99.5968 28.334 98.3134 28.334C97.0301 28.334 95.9897 29.3742 95.9897 30.6574C95.9897 31.9406 97.0301 32.9809 98.3134 32.9809Z" fill="#E6E6E6"/>
<path d="M49.6219 119.781C49.6219 120.372 49.6413 120.964 49.6828 121.55C49.7267 122.251 49.8021 122.947 49.9047 123.638C50.2482 125.966 50.9049 128.236 51.8568 130.387L52.0027 130.708L52.0767 130.868C52.1014 130.922 52.1278 130.975 52.1522 131.026C52.1862 131.097 52.218 131.165 52.2508 131.233C52.2922 131.318 52.3336 131.404 52.3773 131.489C52.3822 131.498 52.3869 131.511 52.3943 131.523C52.4308 131.597 52.4648 131.666 52.5038 131.739C52.511 131.755 52.5193 131.771 52.5284 131.786C52.5699 131.869 52.6135 131.954 52.6574 132.037C52.7067 132.124 52.7523 132.214 52.8009 132.302C52.9178 132.519 53.0393 132.733 53.1636 132.947C53.2001 133.01 53.2376 133.073 53.2755 133.137C53.3096 133.195 53.3436 133.254 53.3801 133.312C53.4047 133.351 53.4294 133.392 53.4541 133.431C53.493 133.497 53.532 133.56 53.5734 133.626C53.6634 133.77 53.7559 133.913 53.8461 134.057H53.8486C53.89 134.123 53.9339 134.188 53.9775 134.252V134.254C54.1065 134.449 54.2404 134.643 54.3743 134.836C54.3749 134.836 54.3755 134.836 54.376 134.836C54.3765 134.837 54.3767 134.837 54.3767 134.838C54.4837 134.994 54.5957 135.145 54.7054 135.296V135.298C54.7794 135.393 54.8489 135.49 54.9221 135.585C54.9806 135.663 55.0415 135.744 55.1021 135.822C55.1142 135.839 55.129 135.853 55.1411 135.871V135.873C55.1581 135.895 55.1751 135.915 55.1921 135.937C55.4502 136.268 55.7163 136.591 55.9905 136.908L56.0344 136.959C56.049 136.976 56.066 136.993 56.0808 137.012C56.1054 137.039 56.1271 137.066 56.1513 137.093C56.1755 137.12 56.1976 137.146 56.2218 137.173C57.6514 138.783 59.2723 140.213 61.0487 141.43C61.2849 141.593 61.5258 141.751 61.7667 141.905C61.8276 141.944 61.8885 141.983 61.9492 142.019C61.9662 142.031 61.9856 142.044 62.0027 142.055C62.0367 142.075 62.0685 142.094 62.1013 142.116C62.1341 142.138 62.1647 142.155 62.1987 142.175C62.3276 142.255 62.4591 142.333 62.5905 142.411C62.622 142.43 62.6563 142.45 62.6891 142.469C62.7219 142.489 62.7549 142.506 62.7877 142.525C62.7877 142.528 62.7877 142.528 62.7902 142.528H62.7927V142.53H62.7951C62.9582 142.625 63.1237 142.718 63.2917 142.808C63.3817 142.857 63.4742 142.906 63.5669 142.954C63.7762 143.068 63.9881 143.178 64.1999 143.282C64.2753 143.319 64.3532 143.356 64.4287 143.394C64.492 143.423 64.5552 143.455 64.6185 143.484C64.638 143.494 64.655 143.501 64.672 143.511C64.7255 143.536 64.7766 143.56 64.8303 143.585C64.8888 143.612 64.9472 143.639 65.0029 143.665C65.0688 143.695 65.1319 143.724 65.1977 143.75C65.4411 143.86 65.6869 143.965 65.9327 144.064C66.8138 144.425 67.7142 144.738 68.6297 144.999C68.6712 145.011 68.715 145.024 68.7587 145.035C69.1506 145.145 69.5451 145.245 69.9422 145.335C70.6359 145.495 71.3361 145.627 72.0428 145.729H72.0477L72.3009 145.766C72.3083 145.766 72.3155 145.768 72.3256 145.768C72.3256 145.771 72.3256 145.771 72.3281 145.768L72.6079 145.805C72.6142 145.807 72.6208 145.807 72.6274 145.807C72.7149 145.819 72.8052 145.829 72.8927 145.839L73.1775 145.868L73.3964 145.89C73.4027 145.892 73.4093 145.893 73.4159 145.892C73.4818 145.897 73.5473 145.904 73.6132 145.909H73.623L73.7934 145.924C74.4725 145.977 75.154 146.002 75.8454 146.002C76.5927 146.002 77.3352 145.973 78.0677 145.909H78.0751L78.5448 145.865C78.5863 145.86 78.6252 145.858 78.6666 145.853C78.674 145.853 78.6836 145.851 78.6913 145.851C78.7034 145.848 78.716 145.848 78.7303 145.846C78.7368 145.846 78.7434 145.845 78.7497 145.843C78.8032 145.838 78.8567 145.831 78.9127 145.826L79.0952 145.804C79.1561 145.797 79.217 145.787 79.2776 145.78C79.2922 145.777 79.3045 145.777 79.3191 145.775C79.363 145.77 79.4066 145.763 79.4505 145.755L79.5139 145.748C79.5577 145.741 79.5992 145.736 79.6428 145.729H79.6453C80.9809 145.537 82.2994 145.24 83.5884 144.841C83.6565 144.819 83.7248 144.8 83.7928 144.778C83.7953 144.778 83.7978 144.775 83.8002 144.775C83.8197 144.768 83.8417 144.763 83.8611 144.756C84.0436 144.697 84.2238 144.636 84.4036 144.573C84.6519 144.49 84.8967 144.401 85.1433 144.308C85.2091 144.281 85.2747 144.257 85.3406 144.23C85.4745 144.179 85.6059 144.125 85.7373 144.072C85.9612 143.982 86.1851 143.887 86.4067 143.789C86.6136 143.697 86.818 143.605 87.0232 143.507C87.0281 143.505 87.0352 143.505 87.0402 143.5C87.0865 143.478 87.1326 143.456 87.1765 143.434H87.179C88.3 142.896 89.3811 142.279 90.414 141.587C90.7451 141.365 91.0712 141.136 91.3924 140.9C91.6503 140.708 91.9035 140.513 92.1568 140.314C93.4056 139.32 94.5617 138.216 95.6107 137.013V137.011C95.6862 136.928 95.7567 136.843 95.8297 136.758C95.8418 136.746 95.8516 136.733 95.8612 136.724C95.9076 136.668 95.9512 136.614 95.9976 136.561V136.558C96.0585 136.488 96.1194 136.415 96.1776 136.342C96.1921 136.325 96.2045 136.31 96.2165 136.295V136.293C96.2659 136.234 96.3115 136.176 96.3601 136.115C96.3847 136.086 96.4064 136.057 96.4306 136.027V136.025C96.5741 135.845 96.7129 135.665 96.8517 135.48C96.8882 135.431 96.9257 135.381 96.9637 135.329C97.139 135.093 97.3088 134.852 97.4748 134.611V134.609C97.5382 134.519 97.5981 134.426 97.6622 134.336L97.8447 134.059C97.9056 133.961 97.9679 133.866 98.0296 133.769L98.037 133.754C98.0979 133.662 98.1588 133.564 98.217 133.47C98.2633 133.392 98.3094 133.316 98.3558 133.241C98.3849 133.19 98.4167 133.138 98.4458 133.085C98.4572 133.068 98.4677 133.051 98.4773 133.034L98.6818 132.676C98.7621 132.537 98.84 132.396 98.918 132.255C98.9471 132.197 98.9789 132.138 99.0104 132.08C99.0225 132.06 99.0324 132.041 99.042 132.021C99.0785 131.953 99.116 131.882 99.149 131.812C99.182 131.741 99.223 131.673 99.2585 131.603C99.294 131.532 99.329 131.464 99.363 131.393C99.3899 131.34 99.4141 131.286 99.4409 131.233C99.4429 131.228 99.4453 131.224 99.4483 131.221C99.4604 131.194 99.473 131.17 99.4824 131.145C99.4854 131.142 99.4879 131.138 99.4898 131.133C99.5166 131.08 99.5408 131.024 99.5677 130.97C99.6017 130.9 99.6335 130.827 99.6663 130.756C99.6883 130.707 99.7127 130.657 99.7344 130.605C99.7659 130.535 99.8002 130.464 99.8293 130.391C99.8633 130.317 99.8951 130.245 99.9267 130.169C99.9359 130.151 99.9442 130.132 99.9513 130.113C99.9684 130.079 99.9804 130.045 99.9952 130.011C100.034 129.921 100.073 129.828 100.11 129.738C100.154 129.636 100.195 129.531 100.233 129.429C100.272 129.334 100.308 129.237 100.345 129.139L100.359 129.105C100.927 127.612 101.357 126.069 101.645 124.498V124.495C101.807 123.598 101.923 122.693 101.993 121.783C101.995 121.732 102 121.685 102.002 121.636C102.046 121.019 102.066 120.403 102.066 119.781C102.066 119.506 102.061 119.233 102.054 118.961C101.884 113.26 99.8506 107.771 96.2654 103.335C96.1874 103.238 96.1095 103.141 96.0292 103.043C95.9488 102.946 95.8662 102.851 95.7858 102.756C93.1175 99.6315 89.7523 97.1776 85.9614 95.5921C82.1706 94.0067 78.0603 93.3341 73.9618 93.6284C69.8633 93.9228 65.8913 95.176 62.366 97.287C58.8408 99.3979 55.8609 102.308 53.6666 105.781C53.5473 105.971 53.4282 106.164 53.3138 106.356C53.1993 106.548 53.0849 106.745 52.973 106.942C50.769 110.862 49.6147 115.284 49.6219 119.781Z" fill="#F2F2F2"/>
<path d="M65.5267 105.394C65.5075 105.39 65.4882 105.387 65.4692 105.384C65.5498 105.334 65.6256 105.277 65.6958 105.213L65.5267 105.394Z" fill="white"/>
<path d="M72.8106 128.088H78.4235L78.7727 134.532L72.1353 134.016L72.8106 128.088Z" fill="#FFB9B9"/>
<path d="M61.9739 142.09C62.2256 142.228 62.4806 142.36 62.7353 142.485C62.826 142.528 62.9197 142.572 63.0105 142.619C63.0867 142.654 63.1628 142.693 63.2388 142.728C63.2634 142.739 63.2827 142.748 63.3031 142.76C63.3675 142.789 63.4291 142.819 63.4935 142.848C63.5638 142.88 63.634 142.912 63.7014 142.944C63.7805 142.979 63.8567 143.015 63.9356 143.047C64.2285 143.179 64.5242 143.305 64.82 143.425C65.8801 143.859 66.9635 144.234 68.0652 144.549C68.1145 144.564 68.1677 144.578 68.2203 144.593C68.6919 144.724 69.1663 144.845 69.6437 144.953C70.4784 145.146 71.321 145.305 72.1713 145.428H72.1772L72.4817 145.471C72.4906 145.471 72.4992 145.474 72.5111 145.474C72.5111 145.477 72.5111 145.477 72.514 145.474L72.8508 145.518C72.8588 145.521 72.8672 145.522 72.8755 145.521C72.981 145.536 73.0893 145.548 73.1948 145.559L73.5375 145.594L73.8011 145.621C73.8086 145.623 73.8166 145.624 73.8246 145.624C73.9037 145.63 73.9826 145.638 74.0618 145.644H74.0736L74.2785 145.662C75.0956 145.726 75.9157 145.755 76.7474 145.755C77.6466 145.755 78.5397 145.72 79.4212 145.644H79.4301L79.9952 145.591C80.0445 145.586 80.0919 145.583 80.1417 145.577C80.1506 145.577 80.1622 145.574 80.171 145.574C80.1856 145.571 80.2004 145.571 80.2179 145.568C80.2258 145.568 80.2337 145.567 80.2413 145.565C80.3057 145.559 80.3703 145.551 80.4386 145.545L80.6583 145.518C80.7322 145.509 80.8047 145.498 80.8779 145.489C80.8955 145.486 80.9102 145.486 80.9273 145.483C80.98 145.477 81.0328 145.468 81.0853 145.458L81.1615 145.449C81.2143 145.441 81.2641 145.435 81.3168 145.425H81.3198C82.9269 145.194 84.5133 144.836 86.0643 144.356C86.1464 144.33 86.2283 144.307 86.3109 144.28C85.9327 142.516 85.1542 140.864 84.0355 139.449C82.9167 138.034 81.4877 136.896 79.8589 136.121C80.2618 135.738 80.5403 135.242 80.6585 134.698C80.7345 134.348 80.7406 133.986 80.6763 133.633C80.6119 133.28 80.4785 132.943 80.2837 132.642C79.9037 132.059 79.3074 131.65 78.626 131.506L74.2864 130.598C73.5877 130.462 72.8635 130.607 72.2712 131.002C71.6789 131.397 71.2664 132.009 71.1234 132.707C71.0791 132.92 71.0594 133.139 71.0647 133.357C66.8824 136.142 63.8744 139.027 61.9739 142.09Z" fill="#F1D914"/>
<path d="M74.141 130.069C78.7854 130.069 82.5505 126.305 82.5505 121.661C82.5505 117.017 78.7854 113.252 74.141 113.252C69.4965 113.252 65.7314 117.017 65.7314 121.661C65.7314 126.305 69.4965 130.069 74.141 130.069Z" fill="#FFB9B9"/>
<path d="M68.8993 128.91C68.0025 128.297 67.0868 127.12 66.4755 126.238C65.6653 125.079 65.1078 123.762 64.8392 122.373C64.5706 120.984 64.5968 119.554 64.9162 118.176C65.0181 117.625 65.2684 117.112 65.6401 116.693C66.0361 116.301 66.6831 116.116 67.1667 116.393C67.0348 116.039 66.9767 115.663 66.996 115.286C67.0153 114.91 67.1115 114.541 67.2789 114.203C67.6187 113.528 68.111 112.942 68.7168 112.491C69.8755 111.598 71.2541 111.037 72.7063 110.865C74.1585 110.693 75.6302 110.917 76.9651 111.514C77.4903 111.758 76.6276 109.878 77.1774 110.06C77.7236 110.271 78.3308 110.26 78.8691 110.03C79.3869 109.769 81.1004 111.316 80.9019 110.772C81.2943 110.95 81.6353 111.225 81.893 111.57C82.1507 111.916 82.3169 112.321 82.3759 112.747C82.435 113.174 82.3851 113.609 82.2308 114.012C82.0766 114.414 81.823 114.771 81.4936 115.049C81.0597 115.415 80.5177 115.626 80.0426 115.936C79.2101 116.522 78.6208 117.392 78.3861 118.383C78.1513 119.373 78.2873 120.415 78.7683 121.312C78.2683 120.991 77.7197 120.753 77.1437 120.607C76.8547 120.536 76.5531 120.536 76.2639 120.605C75.9747 120.675 75.7063 120.812 75.481 121.007C75.2928 121.222 75.1506 121.474 75.0632 121.746C74.9758 122.018 74.9449 122.306 74.9726 122.59C74.9913 123.161 75.1272 123.723 75.1425 124.294C75.1871 125.968 76.0841 129.152 74.7857 130.042C73.7597 130.746 70.1233 129.746 68.8993 128.91Z" fill="#2F2E41"/>
<path d="M195.559 62.3416C195.559 62.9333 195.54 63.525 195.498 64.111C195.455 64.812 195.379 65.5079 195.277 66.1993C194.933 68.5266 194.276 70.7968 193.324 72.9482L193.178 73.2687L193.104 73.4295C193.08 73.483 193.053 73.5365 193.029 73.5878C192.995 73.6583 192.963 73.7266 192.93 73.7946C192.889 73.8799 192.848 73.965 192.804 74.0503C192.799 74.0599 192.794 74.0722 192.787 74.0843C192.75 74.1583 192.716 74.2278 192.677 74.301C192.67 74.317 192.662 74.3325 192.653 74.3474C192.611 74.4302 192.567 74.5153 192.524 74.5981C192.474 74.6856 192.429 74.7759 192.38 74.8634C192.263 75.0801 192.142 75.2941 192.018 75.5084C191.981 75.5717 191.944 75.6348 191.906 75.6982C191.872 75.7566 191.838 75.8151 191.801 75.8735C191.776 75.9125 191.752 75.9539 191.727 75.9928C191.688 76.0587 191.649 76.1218 191.608 76.1876C191.518 76.3311 191.425 76.4748 191.335 76.6183H191.333C191.291 76.6841 191.247 76.7497 191.204 76.8131V76.8155C191.075 77.0103 190.941 77.2048 190.807 77.3972C190.806 77.3972 190.806 77.3974 190.805 77.3979C190.805 77.3983 190.804 77.399 190.804 77.3996C190.697 77.5554 190.585 77.7063 190.476 77.8572V77.8597C190.402 77.9546 190.332 78.052 190.259 78.1469C190.201 78.2248 190.14 78.3052 190.079 78.3831C190.067 78.4001 190.052 78.4146 190.04 78.4324V78.4349C190.023 78.4568 190.006 78.4763 189.989 78.4982C189.731 78.8293 189.465 79.153 189.19 79.4694L189.147 79.5204C189.132 79.5374 189.115 79.5544 189.1 79.5739C189.075 79.6008 189.054 79.6274 189.03 79.6543C189.005 79.6812 188.983 79.7078 188.959 79.7347C187.53 81.3449 185.909 82.7744 184.132 83.9915C183.896 84.1545 183.655 84.312 183.414 84.4661C183.353 84.5051 183.292 84.544 183.232 84.5805C183.215 84.5926 183.195 84.6052 183.178 84.617C183.144 84.6365 183.112 84.656 183.08 84.6779C183.047 84.6999 183.016 84.7169 182.982 84.7363C182.853 84.8167 182.722 84.8946 182.59 84.9725C182.559 84.992 182.525 85.0115 182.492 85.031C182.459 85.0504 182.426 85.0674 182.393 85.0869C182.393 85.0894 182.393 85.0894 182.391 85.0894H182.388V85.0919H182.386C182.223 85.1867 182.057 85.2792 181.889 85.3692C181.799 85.4185 181.707 85.4678 181.614 85.5152C181.405 85.6296 181.193 85.739 180.981 85.8438C180.906 85.8803 180.828 85.9178 180.752 85.9558C180.689 85.9849 180.626 86.0167 180.562 86.0457C180.543 86.0554 180.526 86.0628 180.509 86.0726C180.455 86.0973 180.404 86.1219 180.351 86.1466C180.292 86.1735 180.234 86.2001 180.178 86.227C180.112 86.2561 180.049 86.2854 179.983 86.312C179.74 86.4215 179.494 86.5263 179.248 86.6259C178.367 86.987 177.467 87.299 176.551 87.5605C176.51 87.5726 176.466 87.5852 176.422 87.597C176.03 87.7065 175.636 87.8062 175.239 87.8963C174.545 88.0569 173.845 88.1884 173.138 88.2908H173.133L172.88 88.3273C172.873 88.3273 172.865 88.3297 172.855 88.3297C172.855 88.3322 172.855 88.3322 172.853 88.3297L172.573 88.3662C172.567 88.3681 172.56 88.3689 172.554 88.3687C172.466 88.3808 172.376 88.3906 172.288 88.4003L172.003 88.4294L171.784 88.4513C171.778 88.4535 171.772 88.4543 171.765 88.4538C171.699 88.4587 171.634 88.4658 171.568 88.4708H171.558L171.388 88.4853C170.709 88.5388 170.027 88.5632 169.336 88.5632C168.588 88.5632 167.846 88.5341 167.113 88.4708H167.106L166.636 88.4269C166.595 88.422 166.556 88.4195 166.515 88.4148C166.507 88.4148 166.498 88.4123 166.49 88.4123C166.478 88.4099 166.465 88.4099 166.451 88.4074C166.444 88.4077 166.438 88.4068 166.431 88.4049C166.378 88.4 166.324 88.3929 166.268 88.3879L166.086 88.366C166.025 88.3586 165.964 88.349 165.904 88.3413C165.889 88.3389 165.877 88.3389 165.862 88.3364C165.818 88.3315 165.775 88.3243 165.731 88.3169L165.667 88.3095C165.623 88.3021 165.582 88.2974 165.538 88.2901H165.536C164.2 88.098 162.882 87.8013 161.593 87.4025C161.525 87.3805 161.456 87.3611 161.388 87.3391C161.386 87.3391 161.383 87.3367 161.381 87.3367C161.361 87.3293 161.34 87.3246 161.32 87.3172C161.138 87.2588 160.957 87.1979 160.778 87.1347C160.529 87.0519 160.284 86.9622 160.038 86.8695C159.972 86.8426 159.906 86.8184 159.841 86.7915C159.707 86.7405 159.575 86.687 159.444 86.6333C159.22 86.5433 158.996 86.4484 158.774 86.351C158.568 86.2585 158.363 86.1661 158.158 86.0687C158.153 86.0662 158.146 86.0662 158.141 86.0613C158.095 86.0393 158.049 86.0174 158.005 85.9955H158.002C156.881 85.4575 155.8 84.8402 154.767 84.1481C154.436 83.9267 154.11 83.6979 153.789 83.4617C153.531 83.2694 153.277 83.0746 153.024 82.8752C151.775 81.8819 150.619 80.7773 149.57 79.5749V79.5724C149.495 79.4896 149.424 79.4045 149.351 79.3192C149.339 79.3071 149.329 79.2946 149.32 79.2852C149.273 79.2292 149.23 79.1757 149.183 79.1222V79.1198C149.122 79.0493 149.062 78.9763 149.003 78.9031C148.989 78.886 148.976 78.8715 148.964 78.8567V78.8542C148.915 78.7958 148.869 78.7374 148.821 78.6765C148.796 78.6474 148.774 78.6181 148.75 78.589V78.5865C148.607 78.4065 148.468 78.2263 148.329 78.0414C148.292 77.9921 148.255 77.9428 148.217 77.8905C148.042 77.6543 147.872 77.4134 147.706 77.1725V77.1701C147.643 77.0801 147.583 76.9876 147.518 76.8974L147.336 76.62C147.275 76.5226 147.213 76.4277 147.151 76.3303L147.144 76.3158C147.083 76.2233 147.022 76.126 146.963 76.031C146.917 75.9531 146.871 75.8777 146.825 75.8022C146.796 75.7512 146.764 75.6999 146.735 75.6464C146.723 75.63 146.713 75.6129 146.703 75.5954L146.499 75.2377C146.418 75.0988 146.34 74.9578 146.262 74.8165C146.233 74.7581 146.202 74.6997 146.17 74.6413C146.158 74.6218 146.148 74.6023 146.138 74.5828C146.102 74.5148 146.064 74.444 146.031 74.3735C145.998 74.303 145.957 74.2347 145.922 74.1642C145.886 74.0937 145.851 74.0254 145.817 73.9549C145.791 73.9014 145.766 73.8479 145.739 73.7941C145.738 73.7898 145.735 73.7857 145.732 73.782C145.72 73.7552 145.707 73.731 145.698 73.7066C145.695 73.7029 145.693 73.6989 145.691 73.6945C145.664 73.641 145.64 73.5851 145.613 73.5316C145.579 73.461 145.547 73.3881 145.514 73.3173C145.492 73.268 145.468 73.2187 145.446 73.1664C145.415 73.0959 145.38 73.0252 145.351 72.9522C145.317 72.8782 145.285 72.8062 145.254 72.7303C145.245 72.7121 145.236 72.6934 145.229 72.6743C145.212 72.6403 145.2 72.6063 145.185 72.572C145.146 72.482 145.107 72.3895 145.071 72.2993C145.027 72.197 144.986 72.0925 144.948 71.9901C144.909 71.8952 144.872 71.7978 144.836 71.7005L144.821 71.6664C144.254 70.1728 143.824 68.6307 143.536 67.0592V67.0568C143.373 66.1593 143.257 65.2541 143.188 64.3447C143.185 64.2937 143.18 64.2461 143.178 64.1968C143.134 63.5805 143.115 62.9641 143.115 62.3423C143.115 62.0672 143.12 61.7947 143.127 61.522C143.297 55.8212 145.33 50.3329 148.915 45.8969C148.993 45.7995 149.071 45.7022 149.151 45.6048C149.232 45.5074 149.314 45.4125 149.395 45.3175C152.063 42.193 155.428 39.7391 159.219 38.1537C163.01 36.5682 167.12 35.8956 171.219 36.19C175.317 36.4844 179.289 37.7376 182.814 39.8485C186.34 41.9595 189.32 44.8691 191.514 48.3429C191.633 48.5328 191.753 48.7251 191.867 48.9174C191.981 49.1097 192.096 49.3067 192.208 49.5039C194.413 53.4233 195.568 57.8456 195.561 62.3425L195.559 62.3416Z" fill="#F2F2F2"/>
<path d="M179.654 47.9551C179.674 47.9517 179.693 47.949 179.712 47.9455C179.631 47.8956 179.556 47.8385 179.485 47.7749L179.654 47.9551Z" fill="white"/>
<path d="M164.962 73.0154L171.611 72.2852L173.193 78.1088L166.896 79.5866L164.962 73.0154Z" fill="#ED9DA0"/>
<path d="M166.621 74.7889C170.971 74.7889 174.498 71.1844 174.498 66.738C174.498 62.2916 170.971 58.687 166.621 58.687C162.271 58.687 158.745 62.2916 158.745 66.738C158.745 71.1844 162.271 74.7889 166.621 74.7889Z" fill="#ED9DA0"/>
<path d="M183.429 85.2405C183.201 85.3653 182.97 85.4846 182.739 85.5985C182.657 85.6382 182.572 85.6781 182.49 85.7205C182.421 85.7524 182.352 85.7869 182.283 85.8192C182.262 85.8298 182.243 85.8377 182.224 85.8483C182.166 85.8749 182.11 85.9013 182.052 85.9279C181.988 85.957 181.925 85.9863 181.863 86.0154C181.792 86.0472 181.723 86.079 181.651 86.1081C181.386 86.2275 181.118 86.3416 180.85 86.4503C179.89 86.8439 178.908 87.1839 177.911 87.4688C177.866 87.4821 177.818 87.4954 177.77 87.5085C177.343 87.6278 176.913 87.7366 176.481 87.8347C175.725 88.0097 174.961 88.153 174.191 88.2644H174.186L173.91 88.3041C173.902 88.3041 173.894 88.3068 173.884 88.3068C173.884 88.3095 173.884 88.3095 173.881 88.3068L173.576 88.3465C173.569 88.3486 173.562 88.3495 173.555 88.3492C173.459 88.3625 173.361 88.3739 173.265 88.3837L172.955 88.4156L172.716 88.4402C172.71 88.4426 172.702 88.4435 172.695 88.4429C172.623 88.4481 172.552 88.4562 172.48 88.4614H172.47L172.284 88.4774C171.544 88.5359 170.801 88.5622 170.048 88.5622C169.234 88.5622 168.424 88.5304 167.626 88.4614H167.619L167.107 88.4136C167.062 88.4082 167.02 88.4057 166.975 88.4003C166.967 88.4003 166.956 88.3976 166.948 88.3976C166.935 88.3948 166.921 88.3948 166.906 88.3921C166.899 88.3924 166.891 88.3915 166.884 88.3894C166.826 88.3842 166.768 88.3761 166.707 88.3709L166.508 88.3463C166.441 88.3384 166.375 88.3278 166.309 88.3196C166.293 88.3169 166.28 88.3169 166.264 88.3145C166.216 88.309 166.168 88.3011 166.12 88.2933L166.051 88.2854C166.003 88.2775 165.958 88.2721 165.911 88.2642H165.908C164.452 88.0546 163.015 87.7309 161.611 87.296C161.537 87.2713 161.463 87.2509 161.389 87.227C161.731 85.6297 162.436 84.1326 163.45 82.8512C164.463 81.5699 165.757 80.5385 167.232 79.837C166.867 79.4893 166.615 79.0403 166.508 78.5478C166.439 78.2303 166.434 77.9024 166.492 77.5828C166.55 77.2632 166.671 76.9583 166.848 76.6856C167.192 76.1572 167.732 75.787 168.349 75.6565L172.279 74.8343C172.912 74.7109 173.568 74.8423 174.105 75.1999C174.641 75.5575 175.015 76.1125 175.145 76.7441C175.185 76.9376 175.202 77.1352 175.198 77.3328C178.983 79.8532 181.708 82.4659 183.429 85.2405Z" fill="#F1D914"/>
<path d="M187.697 63.2459C186.358 61.6848 185.722 59.6136 184.652 57.8409C183.581 56.0682 181.719 54.4814 179.751 54.8942C178.395 55.1787 177.347 56.3754 176.817 57.7095C176.287 59.0435 176.187 60.5152 176.094 61.9565C176.127 58.9942 174.175 56.1225 171.487 55.1765C168.798 54.2305 165.58 55.2857 163.892 57.6666C163.155 56.9833 162.193 56.5943 161.188 56.5732C160.183 56.5521 159.205 56.9005 158.439 57.5522C156.928 58.9028 156.594 61.4723 157.705 63.1956C158.816 64.919 161.223 65.56 162.989 64.6046L163.614 65.1788C163.262 66.4079 163.944 67.8598 165.089 68.3226C166.019 68.6978 167.33 68.6354 167.678 69.6103C167.921 70.2915 167.467 71.0185 166.984 71.542C166.501 72.0654 165.928 72.6058 165.87 73.3302C165.782 74.4231 166.912 75.1886 167.939 75.4191C170.414 75.9751 173.161 74.8287 174.588 72.644C174.616 72.6019 174.646 72.5598 174.678 72.5175C175.479 71.4938 176.062 70.3177 176.393 69.0609C176.724 67.8041 176.795 66.4931 176.601 65.2079C176.521 64.703 176.601 64.3275 176.95 64.2079C178.454 63.6902 182.671 64.775 183.947 65.7563C185.224 66.7375 186.245 68.0341 187.473 69.078C188.701 70.1218 190.269 70.9271 191.83 70.6426C193.079 70.415 194.143 69.5084 194.858 68.413C195.573 67.3176 195.985 66.043 196.353 64.775C193.588 66.3714 189.805 65.703 187.697 63.2459Z" fill="#2F2E41"/>
<path d="M25.7679 46.0349C25.7679 46.6266 25.7874 47.2183 25.8288 47.8044C25.8727 48.5053 25.9481 49.2013 26.0507 49.8926C26.3943 52.22 27.0509 54.4902 28.0028 56.6416L28.1488 56.9621L28.2227 57.1228C28.2474 57.1763 28.2738 57.2298 28.2982 57.2811C28.3322 57.3516 28.364 57.4199 28.3968 57.488C28.4382 57.5733 28.4797 57.6583 28.5233 57.7436C28.5282 57.7533 28.5329 57.7656 28.5403 57.7777C28.5768 57.8516 28.6108 57.9212 28.6498 57.9944C28.657 58.0103 28.6653 58.0258 28.6744 58.0407C28.7159 58.1236 28.7598 58.2086 28.8034 58.2915C28.8527 58.379 28.8983 58.4692 28.9469 58.5568C29.0638 58.7735 29.1853 58.9875 29.3096 59.2017C29.3461 59.2651 29.3836 59.3282 29.4216 59.3916C29.4556 59.45 29.4896 59.5084 29.5261 59.5669C29.5508 59.6058 29.5754 59.6472 29.6001 59.6862C29.639 59.752 29.678 59.8151 29.7194 59.881C29.8094 60.0244 29.9019 60.1682 29.9921 60.3117H29.9946C30.036 60.3775 30.0797 60.4431 30.1235 60.5064V60.5089C30.2525 60.7037 30.3864 60.8982 30.5203 61.0905C30.5208 61.0903 30.5214 61.0903 30.522 61.0905C30.5222 61.0911 30.5222 61.0917 30.522 61.0922C30.629 61.2481 30.741 61.3989 30.8507 61.5498V61.5523C30.9247 61.6472 30.9942 61.7446 31.0674 61.8395C31.1259 61.9174 31.1868 61.9978 31.2474 62.0757C31.2595 62.0927 31.2743 62.1073 31.2864 62.125V62.1275C31.3034 62.1494 31.3204 62.1689 31.3374 62.1908C31.5955 62.5219 31.8616 62.8456 32.1358 63.162L32.1797 63.213C32.1942 63.23 32.2113 63.247 32.226 63.2665C32.2507 63.2934 32.2724 63.32 32.2966 63.3469C32.3207 63.3738 32.3429 63.4004 32.3671 63.4273C33.7967 65.0375 35.4176 66.467 37.194 67.6841C37.4302 67.8471 37.6711 68.0047 37.912 68.1587C37.9729 68.1977 38.0338 68.2367 38.0944 68.2731C38.1114 68.2852 38.1309 68.2978 38.1479 68.3096C38.182 68.3291 38.2138 68.3486 38.2466 68.3705C38.2794 68.3925 38.3099 68.4095 38.344 68.429C38.4729 68.5093 38.6043 68.5872 38.7358 68.6651C38.7673 68.6846 38.8016 68.7041 38.8344 68.7236C38.8672 68.7431 38.9002 68.7601 38.933 68.7796C38.933 68.782 38.933 68.782 38.9355 68.782H38.9379V68.7845H38.9404C39.1035 68.8793 39.269 68.9718 39.437 69.0618C39.527 69.1112 39.6195 69.1605 39.7122 69.2078C39.9215 69.3222 40.1333 69.4317 40.3451 69.5364C40.4206 69.5729 40.4985 69.6104 40.5739 69.6484C40.6373 69.6775 40.7004 69.7093 40.7638 69.7384C40.7833 69.748 40.8003 69.7554 40.8173 69.7652C40.8708 69.7899 40.9219 69.8146 40.9756 69.8392C41.034 69.8661 41.0925 69.8927 41.1482 69.9196C41.214 69.9487 41.2772 69.978 41.343 70.0049C41.5864 70.1144 41.8322 70.2191 42.078 70.3187C42.9591 70.6799 43.8594 70.9919 44.775 71.2534C44.8164 71.2655 44.8601 71.278 44.904 71.2899C45.2959 71.3993 45.6904 71.4991 46.0875 71.5892C46.7812 71.7498 47.4814 71.8813 48.188 71.9837H48.193L48.4462 72.0201C48.4536 72.0201 48.4608 72.0226 48.4709 72.0226C48.4709 72.0251 48.4709 72.0251 48.4733 72.0226L48.7532 72.0591C48.7595 72.061 48.7661 72.0618 48.7727 72.0616C48.8602 72.0737 48.9504 72.0835 49.038 72.0931L49.3228 72.1222L49.5417 72.1442C49.548 72.1463 49.5546 72.1472 49.5612 72.1466C49.627 72.1516 49.6926 72.1587 49.7585 72.1636H49.7681L49.9384 72.1782C50.6175 72.2317 51.299 72.2561 51.9904 72.2561C52.7378 72.2561 53.4799 72.227 54.2127 72.1636H54.2201L54.6899 72.1198C54.7313 72.1148 54.7702 72.1124 54.8117 72.1077C54.8191 72.1077 54.8287 72.1052 54.8363 72.1052C54.8484 72.1027 54.861 72.1027 54.8753 72.1003C54.8819 72.1005 54.8884 72.0997 54.8948 72.0978C54.9483 72.0929 55.0018 72.0857 55.0577 72.0808L55.2402 72.0589C55.3011 72.0515 55.362 72.0418 55.4227 72.0342C55.4372 72.0317 55.4495 72.0317 55.4641 72.0293C55.508 72.0243 55.5516 72.0172 55.5955 72.0098L55.6589 72.0024C55.7028 71.995 55.744 71.9903 55.7878 71.9829H55.7903C57.1259 71.7909 58.4444 71.4941 59.7335 71.0954C59.8015 71.0734 59.8698 71.0539 59.9379 71.032C59.9403 71.032 59.9428 71.0295 59.9453 71.0295C59.9647 71.0221 59.9867 71.0175 60.0062 71.0101C60.1886 70.9516 60.3689 70.8907 60.5486 70.8276C60.7969 70.7448 61.0418 70.655 61.2883 70.5623C61.3542 70.5354 61.4198 70.5113 61.4856 70.4844C61.6195 70.4334 61.7509 70.3799 61.8823 70.3261C62.1062 70.2361 62.3301 70.1412 62.5518 70.0438C62.7586 69.9514 62.963 69.8589 63.1682 69.7615C63.1731 69.7591 63.1803 69.7591 63.1852 69.7542C63.2316 69.7322 63.2777 69.7103 63.3216 69.6883H63.324C64.445 69.1504 65.5261 68.533 66.559 67.841C66.8901 67.6195 67.2162 67.3908 67.5374 67.1546C67.7953 66.9623 68.0486 66.7675 68.3018 66.568C69.5506 65.5748 70.7067 64.4701 71.7557 63.2678V63.2653C71.8312 63.1825 71.9017 63.0974 71.9747 63.0121C71.9868 63 71.9966 62.9874 72.0063 62.9781C72.0526 62.9221 72.0963 62.8686 72.1426 62.8151V62.8126C72.2035 62.7421 72.2644 62.6691 72.3226 62.5959C72.3372 62.5789 72.3495 62.5644 72.3616 62.5496V62.5471C72.4109 62.4887 72.4565 62.4302 72.5051 62.3694C72.5297 62.3403 72.5514 62.3109 72.5756 62.2818V62.2794C72.7191 62.0994 72.8579 61.9192 72.9967 61.7342C73.0332 61.6849 73.0707 61.6356 73.1087 61.5834C73.284 61.3472 73.4539 61.1063 73.6198 60.8654V60.8629C73.6832 60.773 73.7431 60.6805 73.8072 60.5903L73.9897 60.3129C74.0506 60.2155 74.113 60.1206 74.1746 60.0232L74.182 60.0087C74.2429 59.9162 74.3038 59.8188 74.362 59.7239C74.4084 59.646 74.4545 59.5706 74.5008 59.4951C74.5299 59.4441 74.5617 59.3928 74.5908 59.3393C74.6022 59.3228 74.6127 59.3058 74.6224 59.2883L74.8268 58.9305C74.9072 58.7917 74.9851 58.6507 75.063 58.5094C75.0921 58.451 75.1239 58.3926 75.1555 58.3341C75.1675 58.3146 75.1774 58.2952 75.187 58.2757C75.2235 58.2076 75.261 58.1369 75.294 58.0664C75.3271 57.9959 75.368 57.9276 75.4035 57.8571C75.439 57.7865 75.474 57.7183 75.5081 57.6477C75.5349 57.5942 75.5591 57.5407 75.586 57.487C75.5879 57.4826 75.5904 57.4786 75.5934 57.4749C75.6055 57.448 75.618 57.4239 75.6274 57.3995C75.6304 57.3958 75.6329 57.3917 75.6348 57.3874C75.6617 57.3339 75.6858 57.2779 75.7127 57.2244C75.7467 57.1539 75.7785 57.0809 75.8113 57.0102C75.8333 56.9609 75.8577 56.9116 75.8794 56.8593C75.911 56.7888 75.9452 56.718 75.9743 56.645C76.0083 56.5711 76.0402 56.4991 76.0717 56.4231C76.081 56.405 76.0892 56.3863 76.0964 56.3672C76.1134 56.3332 76.1255 56.2991 76.1403 56.2649C76.1792 56.1749 76.2182 56.0824 76.2547 55.9922C76.2986 55.8899 76.34 55.7853 76.378 55.683C76.4169 55.5881 76.4534 55.4907 76.4899 55.3933L76.5045 55.3593C77.0716 53.8657 77.5017 52.3236 77.7896 50.7521V50.7496C77.952 49.8522 78.0682 48.947 78.1377 48.0376C78.1402 47.9866 78.1451 47.939 78.1476 47.8897C78.1915 47.2733 78.211 46.657 78.211 46.0352C78.211 45.76 78.206 45.4876 78.1989 45.2149C78.0289 39.514 75.9958 34.0258 72.4106 29.5898C72.3327 29.4924 72.2548 29.395 72.1744 29.2976C72.094 29.2002 72.0114 29.1053 71.9311 29.0104C69.2627 25.8859 65.8975 23.432 62.1067 21.8465C58.3159 20.2611 54.2055 19.5884 50.107 19.8828C46.0085 20.1772 42.0366 21.4304 38.5113 23.5414C34.986 25.6523 32.0062 28.562 29.8119 32.0358C29.6925 32.2256 29.5734 32.4179 29.459 32.6102C29.3446 32.8025 29.2302 32.9995 29.1183 33.1968C26.9135 37.1161 25.7584 41.5384 25.7649 46.0352L25.7679 46.0349Z" fill="#F2F2F2"/>
<path d="M41.6727 31.648C41.6535 31.6446 41.6342 31.6418 41.6152 31.6384C41.6958 31.5885 41.7716 31.5314 41.8418 31.4678L41.6727 31.648Z" fill="white"/>
<path d="M50.6096 53.0576H56.7246L56.4642 60.9769L49.543 60.435L50.6096 53.0576Z" fill="#9E616A"/>
<path d="M39.7151 68.992C39.9538 69.1236 40.1949 69.2496 40.4363 69.3702C40.5224 69.4121 40.6111 69.4543 40.6972 69.4991C40.7694 69.5327 40.8414 69.5691 40.9137 69.6027C40.9359 69.6138 40.9553 69.6224 40.9746 69.6335C41.0357 69.6616 41.0939 69.6895 41.1548 69.7176C41.2214 69.7484 41.288 69.7792 41.3521 69.81C41.426 69.8435 41.5 69.8773 41.574 69.9086C41.8514 70.0346 42.1317 70.1552 42.4123 70.2698C43.4161 70.6852 44.4423 71.0443 45.4861 71.3453C45.5332 71.3593 45.5832 71.3734 45.634 71.3872C46.0806 71.5132 46.5301 71.6283 46.9823 71.7323C47.7729 71.9173 48.571 72.0685 49.3765 72.186H49.3819L49.6704 72.2279C49.6788 72.2279 49.6871 72.2306 49.6982 72.2306C49.6982 72.2333 49.6982 72.2333 49.701 72.2306L50.02 72.2725C50.0272 72.2746 50.0347 72.2756 50.0422 72.2752C50.1421 72.2893 50.2446 72.2999 50.3445 72.3117L50.669 72.3453L50.9188 72.3699C50.9259 72.3724 50.9334 72.3733 50.941 72.3726C51.0149 72.3783 51.0909 72.3867 51.1656 72.3923H51.1767L51.371 72.4091C52.145 72.4707 52.9217 72.4986 53.7097 72.4986C54.5614 72.4986 55.4076 72.4651 56.2425 72.3921H56.2509L56.7862 72.3428C56.8332 72.3371 56.8776 72.3344 56.925 72.3287C56.9334 72.3287 56.9445 72.326 56.9528 72.326C56.9666 72.3233 56.9807 72.3233 56.9972 72.3204C57.0047 72.3207 57.0122 72.3197 57.0194 72.3176C57.0806 72.312 57.1427 72.3036 57.2053 72.2982L57.4134 72.2735C57.4827 72.2651 57.5522 72.2538 57.6215 72.2454C57.6383 72.2427 57.6521 72.2427 57.6686 72.2397C57.7179 72.2341 57.7673 72.2257 57.8185 72.2173L57.8908 72.2089C57.9401 72.2005 57.9879 72.1949 58.0387 72.1865H58.0414C59.5637 71.9644 61.0659 71.6219 62.534 71.1623C62.6116 71.1377 62.6893 71.1147 62.767 71.0884C62.4129 69.407 61.6778 67.8293 60.6182 66.4766C59.5586 65.1239 58.2029 64.0323 56.6552 63.2857C57.0376 62.9174 57.3013 62.4435 57.4127 61.9245C57.5582 61.248 57.4306 60.5414 57.0576 59.9585C56.8804 59.6829 56.6504 59.4451 56.381 59.2586C56.1115 59.0722 55.8079 58.9408 55.4875 58.872L51.3761 58.0039C50.7116 57.8757 50.0233 58.0158 49.4618 58.3937C48.9003 58.7716 48.5114 59.3565 48.3801 60.0204C48.3381 60.2249 48.3195 60.4335 48.3246 60.6422C44.3647 63.3029 41.5155 66.0625 39.7151 68.992Z" fill="#F1D914"/>
<path d="M52.4361 57.561C57.2854 57.561 61.2165 53.6303 61.2165 48.7815C61.2165 43.9327 57.2854 40.002 52.4361 40.002C47.5869 40.002 43.6558 43.9327 43.6558 48.7815C43.6558 53.6303 47.5869 57.561 52.4361 57.561Z" fill="#9E616A"/>
<path d="M51.1888 57.0917C48.9906 57.6854 46.5671 56.8962 44.8519 55.3989C43.1368 53.9017 42.0635 51.7806 41.4451 49.5893C40.9921 47.9846 40.7776 46.2033 41.4921 44.6966C42.2067 43.19 44.1305 42.1737 45.6138 42.9346C44.6986 41.8682 45.1557 40.1044 46.2248 39.1925C47.294 38.2805 48.7618 38.0187 50.1598 37.8757C52.1889 37.6681 54.2847 37.6449 56.2156 38.3022C58.1465 38.9595 59.9006 40.3964 60.5059 42.3456C61.1231 42.6329 61.8181 42.7074 62.4822 42.5575C63.1462 42.4076 63.7418 42.0417 64.1757 41.5172C64.2877 42.1197 64.198 42.7423 63.9203 43.2887C63.6427 43.8351 63.1926 44.2746 62.6398 44.5393L65.5986 43.5803C66.1073 44.6572 65.2159 45.9898 64.0758 46.3347C62.9356 46.6796 61.7053 46.3026 60.6238 45.8044C59.5423 45.3061 58.4937 44.6764 57.3185 44.4821C56.1434 44.2878 54.7631 44.6653 54.2196 45.725C53.9348 46.2799 53.92 46.9301 53.7548 47.5314C53.5896 48.1327 53.171 48.7565 52.5489 48.8058C52.1561 48.8369 51.7712 48.6276 51.3794 48.6705C51.139 48.7179 50.9177 48.8344 50.7426 49.0056C50.5674 49.1769 50.4459 49.3955 50.3931 49.6347C50.2956 50.1146 50.2945 50.609 50.3896 51.0893L51.1412 56.8338L51.1888 57.0917Z" fill="#2F2E41"/>
<path d="M2.59102 78.771C2.93556 78.7123 3.28889 78.7316 3.62495 78.8276C3.96101 78.9237 4.27124 79.0939 4.53276 79.3257L4.54706 79.3385L4.56037 79.3269C4.80987 79.1077 5.10326 78.9442 5.42096 78.8474C5.73867 78.7505 6.07337 78.7225 6.40275 78.7653L6.49842 78.7794C6.91352 78.851 7.30152 79.0335 7.62133 79.3077C7.94114 79.5818 8.18084 79.9373 8.31506 80.3366C8.44927 80.7358 8.473 81.1639 8.38373 81.5755C8.29446 81.9872 8.09551 82.367 7.80795 82.6748L7.73793 82.7468L7.71919 82.7628L4.81804 85.6361C4.75109 85.7023 4.66242 85.742 4.56844 85.7478C4.47446 85.7537 4.38154 85.7253 4.3069 85.6679L4.27041 85.6361L1.35471 82.747C1.04567 82.4464 0.825868 82.0662 0.719667 81.6483C0.613466 81.2305 0.625006 80.7914 0.753009 80.3798C0.881012 79.9681 1.12048 79.5999 1.44489 79.3159C1.7693 79.032 2.16599 78.8434 2.59102 78.771Z" fill="#F1D914"/>
<path d="M134.93 53.8544C134.632 53.8545 134.345 53.7407 134.128 53.5361C133.911 53.3314 133.781 53.0515 133.764 52.7538L133.761 52.6847V49.001L137.439 51.4532L137.484 51.4778C137.537 51.5045 137.596 51.5184 137.656 51.5184C137.715 51.5184 137.774 51.5045 137.827 51.4778L137.872 51.4532L141.55 49.001V52.6847C141.55 52.9828 141.436 53.2697 141.232 53.4865C141.027 53.7033 140.747 53.8335 140.45 53.8505L140.381 53.8544H134.93ZM133.934 48.1802C134.032 48.0214 134.166 47.8883 134.326 47.7921C134.485 47.6959 134.666 47.6394 134.852 47.6274L134.93 47.624H140.38C140.58 47.624 140.776 47.6752 140.951 47.7726C141.125 47.8699 141.271 48.0102 141.376 48.1802L137.654 50.6596L133.934 48.1802Z" fill="#F1D914"/>
<path d="M41.5348 94.4062C41.948 94.4062 42.3442 94.5704 42.6364 94.8625C42.9285 95.1546 43.0926 95.5508 43.0926 95.9639V99.0793C43.0926 99.4924 42.9285 99.8886 42.6364 100.181C42.3442 100.473 41.948 100.637 41.5348 100.637H39.6949L37.8404 101.75C37.7846 101.783 37.7212 101.802 37.6561 101.805C37.591 101.808 37.5262 101.794 37.4678 101.765C37.4093 101.736 37.3591 101.693 37.3216 101.64C37.284 101.587 37.2605 101.525 37.2531 101.46L37.2509 101.416V100.637H36.8613C36.4617 100.637 36.0774 100.483 35.7878 100.208C35.4982 99.9328 35.3256 99.5567 35.3054 99.1577L35.3035 99.0793V95.9639C35.3035 95.5508 35.4676 95.1546 35.7597 94.8625C36.0519 94.5704 36.4481 94.4062 36.8613 94.4062H41.5348ZM39.977 97.9109H37.6402C37.5369 97.9109 37.4379 97.9519 37.3648 98.025C37.2918 98.098 37.2508 98.197 37.2508 98.3003C37.2508 98.4036 37.2918 98.5027 37.3648 98.5757C37.4379 98.6487 37.5369 98.6897 37.6402 98.6897H39.977C40.0803 98.6897 40.1793 98.6487 40.2524 98.5757C40.3254 98.5027 40.3664 98.4036 40.3664 98.3003C40.3664 98.197 40.3254 98.098 40.2524 98.025C40.1793 97.9519 40.0803 97.9109 39.977 97.9109ZM40.7559 96.354H37.6402C37.5369 96.354 37.4379 96.395 37.3648 96.468C37.2918 96.5411 37.2508 96.6401 37.2508 96.7434C37.2508 96.8467 37.2918 96.9457 37.3648 97.0187C37.4379 97.0918 37.5369 97.1328 37.6402 97.1328H40.7559C40.8592 97.1328 40.9582 97.0918 41.0313 97.0187C41.1043 96.9457 41.1453 96.8467 41.1453 96.7434C41.1453 96.6401 41.1043 96.5411 41.0313 96.468C40.9582 96.395 40.8592 96.354 40.7559 96.354Z" fill="#F1D914"/>
<path d="M37.6271 82.2431C38.9105 82.2431 39.9508 81.2029 39.9508 79.9196C39.9508 78.6364 38.9105 77.5962 37.6271 77.5962C36.3438 77.5962 35.3035 78.6364 35.3035 79.9196C35.3035 81.2029 36.3438 82.2431 37.6271 82.2431Z" fill="#E6E6E6"/>
</g>
<defs>
<clipPath id="clip0_43_2490">
<rect width="197" height="146" fill="white"/>
</clipPath>
</defs>
</svg>
