<svg width="192" height="172" viewBox="0 0 192 172" fill="none" xmlns="http://www.w3.org/2000/svg">
<g clip-path="url(#clip0_43_2678)">
<path d="M0.000143931 164.239C-0.00173933 164.328 0.0148763 164.417 0.0489431 164.5C0.0803431 164.569 0.122944 164.607 0.167344 164.607H39.6016C39.694 164.607 39.7689 164.442 39.7689 164.239C39.7689 164.037 39.694 163.872 39.6016 163.872H0.167544C0.123144 163.872 0.080543 163.91 0.049143 163.979C0.0150762 164.062 -0.00153944 164.151 0.000343821 164.24L0.000143931 164.239Z" fill="#E6E6E6"/>
<path d="M153.256 0H43.213C42.2999 0.000955648 41.4245 0.365128 40.7788 1.0126C40.1331 1.66008 39.77 2.53797 39.769 3.45364V61.6706C39.77 62.5863 40.1331 63.4641 40.7788 64.1116C41.4245 64.7591 42.2999 65.1233 43.213 65.1242H153.256C154.169 65.1233 155.044 64.7591 155.69 64.1116C156.336 63.4641 156.699 62.5863 156.7 61.6706V3.45184C156.698 2.5365 156.335 1.6591 155.689 1.01202C155.044 0.364948 154.169 0.00100764 153.256 0ZM156.372 61.6722C156.371 62.5007 156.043 63.295 155.458 63.8809C154.874 64.4667 154.082 64.7962 153.256 64.7969H43.213C42.3869 64.7962 41.5947 64.4667 41.0105 63.8809C40.4263 63.295 40.0978 62.5007 40.097 61.6722V3.45184C40.0978 2.62334 40.4263 1.82898 41.0105 1.24314C41.5947 0.657305 42.3869 0.327856 43.213 0.327113H153.256C154.082 0.327856 154.874 0.657305 155.458 1.24314C156.043 1.82898 156.371 2.62334 156.372 3.45184V61.6722Z" fill="#3F3D56"/>
<path d="M147.844 9.43293H48.6247C48.6032 9.43293 48.5818 9.42867 48.5619 9.42041C48.542 9.41214 48.524 9.40003 48.5087 9.38476C48.4935 9.36948 48.4814 9.35136 48.4732 9.3314C48.4649 9.31145 48.4607 9.29006 48.4607 9.26846C48.4607 9.24687 48.4649 9.22549 48.4732 9.20553C48.4814 9.18558 48.4935 9.16744 48.5087 9.15217C48.524 9.1369 48.542 9.12479 48.5619 9.11653C48.5818 9.10826 48.6032 9.104 48.6247 9.104H147.844C147.887 9.104 147.929 9.12133 147.96 9.15217C147.99 9.18302 148.008 9.22485 148.008 9.26846C148.008 9.31208 147.99 9.35391 147.96 9.38476C147.929 9.4156 147.887 9.43293 147.844 9.43293Z" fill="#3F3D56"/>
<path d="M76.6684 58.0526C76.6249 58.0526 76.5832 58.0352 76.5524 58.0044C76.5217 57.9736 76.5044 57.9317 76.5044 57.8881V3.78165C76.5044 3.73803 76.5217 3.6962 76.5524 3.66536C76.5832 3.63451 76.6249 3.61719 76.6684 3.61719C76.7119 3.61719 76.7536 3.63451 76.7844 3.66536C76.8151 3.6962 76.8324 3.73803 76.8324 3.78165V57.8881C76.8324 57.9317 76.8151 57.9736 76.7844 58.0044C76.7536 58.0352 76.7119 58.0526 76.6684 58.0526Z" fill="#3F3D56"/>
<path d="M101.432 58.0526C101.389 58.0526 101.347 58.0352 101.316 58.0044C101.286 57.9736 101.268 57.9317 101.268 57.8881V3.78165C101.268 3.73803 101.286 3.6962 101.316 3.66536C101.347 3.63451 101.389 3.61719 101.432 3.61719C101.476 3.61719 101.518 3.63451 101.548 3.66536C101.579 3.6962 101.596 3.73803 101.596 3.78165V57.8881C101.596 57.9097 101.592 57.9311 101.584 57.951C101.576 57.971 101.564 57.9891 101.548 58.0044C101.533 58.0197 101.515 58.0318 101.495 58.04C101.475 58.0483 101.454 58.0526 101.432 58.0526Z" fill="#3F3D56"/>
<path d="M126.196 58.0526C126.153 58.0526 126.111 58.0352 126.08 58.0044C126.05 57.9736 126.032 57.9317 126.032 57.8881V3.78165C126.032 3.73803 126.05 3.6962 126.08 3.66536C126.111 3.63451 126.153 3.61719 126.196 3.61719C126.24 3.61719 126.281 3.63451 126.312 3.66536C126.343 3.6962 126.36 3.73803 126.36 3.78165V57.8881C126.36 57.9317 126.343 57.9736 126.312 58.0044C126.281 58.0352 126.24 58.0526 126.196 58.0526Z" fill="#3F3D56"/>
<path d="M60.7471 26.4088H54.7537C54.5582 26.4085 54.3708 26.3305 54.2325 26.1918C54.0942 26.0532 54.0164 25.8652 54.0161 25.6692V18.5776C54.0164 18.3815 54.0942 18.1935 54.2325 18.0549C54.3708 17.9162 54.5582 17.8382 54.7537 17.8379H60.7461C60.9416 17.8382 61.1291 17.9162 61.2673 18.0549C61.4056 18.1935 61.4834 18.3815 61.4837 18.5776V25.669C61.4834 25.865 61.4056 26.053 61.2673 26.1916C61.1291 26.3303 60.9416 26.4083 60.7461 26.4086L60.7471 26.4088Z" fill="#F1D914"/>
<path d="M88.6268 30.6847H82.6334C82.4378 30.6844 82.2504 30.6064 82.1121 30.4677C81.9739 30.3291 81.8961 30.1411 81.8958 29.945V22.8534C81.8961 22.6574 81.9739 22.4694 82.1121 22.3308C82.2504 22.1921 82.4378 22.1141 82.6334 22.1138H88.626C88.8215 22.1141 89.0089 22.1921 89.1472 22.3308C89.2854 22.4694 89.3632 22.6574 89.3636 22.8534V29.9448C89.3633 30.141 89.2856 30.329 89.1473 30.4678C89.009 30.6065 88.8215 30.6846 88.626 30.6849L88.6268 30.6847Z" fill="#F1D914"/>
<path d="M113.719 22.9552H107.725C107.53 22.9549 107.342 22.8769 107.204 22.7382C107.066 22.5996 106.988 22.4116 106.988 22.2155V15.1239C106.988 14.9279 107.066 14.7399 107.204 14.6013C107.342 14.4626 107.53 14.3846 107.725 14.3843H113.718C113.913 14.3846 114.101 14.4626 114.239 14.6013C114.377 14.7399 114.455 14.9279 114.455 15.1239V22.2153C114.455 22.4115 114.377 22.5995 114.239 22.7383C114.101 22.877 113.913 22.9551 113.718 22.9554L113.719 22.9552Z" fill="#F1D914"/>
<path d="M136.842 22.9552H130.849C130.653 22.9549 130.466 22.8769 130.328 22.7382C130.189 22.5996 130.112 22.4116 130.111 22.2155V15.1239C130.112 14.9279 130.189 14.7399 130.328 14.6013C130.466 14.4626 130.653 14.3846 130.849 14.3843H136.841C137.037 14.3846 137.224 14.4626 137.363 14.6013C137.501 14.7399 137.579 14.9279 137.579 15.1239V22.2153C137.579 22.4114 137.501 22.5994 137.363 22.738C137.224 22.8767 137.037 22.9547 136.841 22.955L136.842 22.9552Z" fill="#F1D914"/>
<path d="M147.502 24.9284H141.509C141.313 24.928 141.126 24.85 140.987 24.7114C140.849 24.5727 140.771 24.3848 140.771 24.1887V17.0971C140.771 16.901 140.849 16.7131 140.987 16.5744C141.126 16.4358 141.313 16.3577 141.509 16.3574H147.501C147.697 16.3577 147.884 16.4358 148.022 16.5744C148.16 16.7131 148.238 16.901 148.239 17.0971V24.1885C148.238 24.3844 148.161 24.5723 148.023 24.7109C147.885 24.8496 147.697 24.9278 147.502 24.9284Z" fill="#E6E6E6"/>
<path d="M142.746 37.5919H136.753C136.557 37.5916 136.37 37.5136 136.232 37.3749C136.093 37.2363 136.015 37.0483 136.015 36.8523V29.7607C136.015 29.5646 136.093 29.3766 136.232 29.238C136.37 29.0993 136.557 29.0213 136.753 29.021H142.745C142.941 29.0213 143.128 29.0993 143.266 29.238C143.405 29.3766 143.482 29.5646 143.483 29.7607V36.8521C143.482 37.048 143.405 37.2358 143.267 37.3745C143.129 37.5132 142.942 37.5913 142.746 37.5919Z" fill="#E6E6E6"/>
<path d="M122.41 34.9606H116.417C116.222 34.9603 116.034 34.8822 115.896 34.7436C115.758 34.6049 115.68 34.417 115.679 34.2209V27.1293C115.68 26.9332 115.758 26.7453 115.896 26.6066C116.034 26.468 116.222 26.39 116.417 26.3896H122.409C122.605 26.39 122.792 26.468 122.931 26.6066C123.069 26.7453 123.147 26.9332 123.147 27.1293V34.2207C123.147 34.4169 123.069 34.6049 122.931 34.7436C122.793 34.8824 122.605 34.9605 122.409 34.9608L122.41 34.9606Z" fill="#FF6584"/>
<path d="M110.766 37.5919H104.773C104.577 37.5916 104.39 37.5136 104.252 37.3749C104.114 37.2363 104.036 37.0483 104.035 36.8523V29.7607C104.036 29.5646 104.114 29.3766 104.252 29.238C104.39 29.0993 104.577 29.0213 104.773 29.021H110.765C110.961 29.0213 111.148 29.0993 111.287 29.238C111.425 29.3766 111.503 29.5646 111.503 29.7607V36.8521C111.503 37.048 111.425 37.2358 111.287 37.3745C111.149 37.5132 110.962 37.5913 110.766 37.5919Z" fill="#E6E6E6"/>
<path d="M85.6749 48.7745H79.6815C79.4859 48.7742 79.2985 48.6962 79.1602 48.5576C79.022 48.4189 78.9442 48.2309 78.9438 48.0349V40.9433C78.9442 40.7472 79.022 40.5593 79.1602 40.4206C79.2985 40.282 79.4859 40.2039 79.6815 40.2036H85.6739C85.8694 40.2039 86.0568 40.282 86.1951 40.4206C86.3333 40.5593 86.4111 40.7472 86.4114 40.9433V48.0347C86.4111 48.2307 86.3333 48.4187 86.1951 48.5573C86.0568 48.696 85.8694 48.774 85.6739 48.7743L85.6749 48.7745Z" fill="#E6E6E6"/>
<path d="M66.1111 39.401H60.1177C59.9222 39.4007 59.7348 39.3227 59.5965 39.184C59.4583 39.0454 59.3804 38.8574 59.3801 38.6613V31.5697C59.3804 31.3737 59.4583 31.1857 59.5965 31.0471C59.7348 30.9084 59.9222 30.8304 60.1177 30.8301H66.1101C66.3057 30.8304 66.4931 30.9084 66.6313 31.0471C66.7696 31.1857 66.8474 31.3737 66.8477 31.5697V38.6611C66.8474 38.8572 66.7696 39.0452 66.6313 39.1838C66.4931 39.3225 66.3057 39.4005 66.1101 39.4008L66.1111 39.401Z" fill="#FF6584"/>
<path d="M72.2268 26.4088H66.2334C66.0379 26.4085 65.8505 26.3305 65.7122 26.1918C65.574 26.0532 65.4962 25.8652 65.4958 25.6692V18.5776C65.4962 18.3815 65.574 18.1935 65.7122 18.0549C65.8505 17.9162 66.0379 17.8382 66.2334 17.8379H72.226C72.4216 17.8382 72.609 17.9162 72.7473 18.0549C72.8855 18.1935 72.9633 18.3815 72.9636 18.5776V25.669C72.9633 25.865 72.8855 26.053 72.7473 26.1916C72.609 26.3303 72.4216 26.4083 72.226 26.4086L72.2268 26.4088Z" fill="#E6E6E6"/>
<path d="M67.3209 6.74243H57.9729C57.7989 6.74243 57.6321 6.67312 57.509 6.54975C57.386 6.42639 57.3169 6.25906 57.3169 6.08459C57.3169 5.91013 57.386 5.7428 57.509 5.61943C57.6321 5.49607 57.7989 5.42676 57.9729 5.42676H67.3209C67.4949 5.42676 67.6617 5.49607 67.7848 5.61943C67.9078 5.7428 67.9769 5.91013 67.9769 6.08459C67.9769 6.25906 67.9078 6.42639 67.7848 6.54975C67.6617 6.67312 67.4949 6.74243 67.3209 6.74243Z" fill="#CCCCCC"/>
<path d="M93.7242 6.74243H84.3762C84.2022 6.74243 84.0354 6.67312 83.9124 6.54975C83.7893 6.42639 83.7202 6.25906 83.7202 6.08459C83.7202 5.91013 83.7893 5.7428 83.9124 5.61943C84.0354 5.49607 84.2022 5.42676 84.3762 5.42676H93.7242C93.8982 5.42676 94.0651 5.49607 94.1881 5.61943C94.3111 5.7428 94.3802 5.91013 94.3802 6.08459C94.3802 6.25906 94.3111 6.42639 94.1881 6.54975C94.0651 6.67312 93.8982 6.74243 93.7242 6.74243Z" fill="#CCCCCC"/>
<path d="M118.488 6.74243H109.14C108.966 6.74243 108.799 6.67312 108.676 6.54975C108.553 6.42639 108.484 6.25906 108.484 6.08459C108.484 5.91013 108.553 5.7428 108.676 5.61943C108.799 5.49607 108.966 5.42676 109.14 5.42676H118.488C118.662 5.42676 118.829 5.49607 118.952 5.61943C119.075 5.7428 119.144 5.91013 119.144 6.08459C119.144 6.25906 119.075 6.42639 118.952 6.54975C118.829 6.67312 118.662 6.74243 118.488 6.74243Z" fill="#CCCCCC"/>
<path d="M141.612 6.74243H132.264C132.09 6.74243 131.923 6.67312 131.8 6.54975C131.677 6.42639 131.608 6.25906 131.608 6.08459C131.608 5.91013 131.677 5.7428 131.8 5.61943C131.923 5.49607 132.09 5.42676 132.264 5.42676H141.612C141.786 5.42676 141.953 5.49607 142.076 5.61943C142.199 5.7428 142.268 5.91013 142.268 6.08459C142.268 6.25906 142.199 6.42639 142.076 6.54975C141.953 6.67312 141.786 6.74243 141.612 6.74243Z" fill="#CCCCCC"/>
<path d="M66.2949 124.911H69.1949L69.8931 115.389L66.2949 114.625V124.911Z" fill="#ED9DA0"/>
<path d="M76.2303 124.845C76.3218 125.109 76.3684 125.387 76.3681 125.667C76.3681 125.929 76.2644 126.18 76.0798 126.365C75.8952 126.55 75.6449 126.654 75.3839 126.654H66.4033C66.2252 126.654 66.0544 126.583 65.9285 126.457C65.8026 126.331 65.7319 126.159 65.7319 125.981V125.606C65.7319 125.606 65.2877 124.479 66.2023 123.09C66.2023 123.09 67.3397 124.178 69.0381 122.474L69.5381 121.564L73.1653 124.223L75.1753 124.471C75.6153 124.525 76.0049 124.463 76.2309 124.845L76.2303 124.845Z" fill="#090814"/>
<path d="M81.6287 124.911H84.5287L85.0497 115.617L80.8823 112.787L81.6287 124.911Z" fill="#ED9DA0"/>
<path d="M91.564 124.845C91.6555 125.109 91.7021 125.387 91.7018 125.667C91.7018 125.929 91.5981 126.18 91.4136 126.365C91.229 126.55 90.9787 126.654 90.7176 126.654H81.737C81.5589 126.654 81.3882 126.583 81.2623 126.457C81.1363 126.331 81.0656 126.159 81.0656 125.981V125.606C81.0656 125.606 80.6214 124.479 81.536 123.09C81.536 123.09 82.6734 124.178 84.3718 122.474L84.8718 121.564L88.499 124.223L90.509 124.471C90.949 124.525 91.3386 124.463 91.5646 124.845L91.564 124.845Z" fill="#090814"/>
<path d="M78.3371 58.1831V54.9541C79.25 54.6226 80.0297 54.0008 80.5574 53.1835C81.085 52.3662 81.3317 51.3983 81.2597 50.4273C81.1878 49.4564 80.8011 48.5357 80.1588 47.8056C79.5164 47.0755 78.6536 46.5761 77.7019 46.3836C76.7501 46.191 75.7617 46.3159 74.8873 46.7391C74.0129 47.1623 73.3006 47.8607 72.8588 48.7277C72.4171 49.5948 72.2702 50.5829 72.4406 51.5414C72.6111 52.4999 73.0894 53.3762 73.8027 54.0367L73.1083 58.1831H78.3371Z" fill="#ED9DA0"/>
<path d="M91.2393 42.8208C91.3886 43.0075 91.4953 43.2249 91.5518 43.4574C91.6084 43.69 91.6133 43.9322 91.5664 44.1669C91.5195 44.4016 91.4219 44.6232 91.2803 44.816C91.1388 45.0087 90.9568 45.168 90.7472 45.2827L91.702 51.0221L88.9461 49.7955L88.4628 44.5334C88.2942 44.1676 88.2652 43.7525 88.3813 43.3667C88.4975 42.981 88.7507 42.6513 89.093 42.4402C89.4353 42.2291 89.8429 42.1513 90.2386 42.2214C90.6343 42.2916 90.9906 42.5048 91.24 42.8208H91.2393Z" fill="#ED9DA0"/>
<path d="M82.5062 81.5493L83.3488 82.6606C83.3488 82.6606 83.425 83.1795 84.7026 87.4061L85.4182 121.91L81.1782 122.249L75.4962 93.7564L69.9394 121.91L65.8254 122.249L66.113 90.4319C66.113 90.4319 65.6488 84.3692 67.2942 83.2428C68.9396 82.1165 82.5062 81.5493 82.5062 81.5493Z" fill="#090814"/>
<path d="M72.3445 51.458L72.4181 51.3105C72.5317 51.0827 73.4723 49.1882 73.5905 48.7011L74.7747 48.8414H77.8577L77.4291 48.1965L78.5617 48.3447C78.9758 48.3951 79.3716 48.5447 79.7159 48.7809C79.9272 48.9216 80.1057 49.1063 80.2395 49.3224C80.6447 50.0171 81.2621 51.1535 81.2679 51.1649L81.3279 51.2742L81.8421 50.4078C81.8489 50.3741 82.4853 47.0448 80.3549 45.9153C80.0513 45.3203 79.5814 44.827 79.0025 44.4957C78.4237 44.1645 77.7611 44.0096 77.0959 44.0501C76.8527 43.7719 76.51 43.6011 76.1421 43.5745C75.6367 43.5481 75.1121 43.8152 74.5853 44.3692C73.8853 45.106 72.9271 46.114 72.3475 47.2354L72.1875 47.4642C71.9603 47.7915 71.8478 48.1852 71.8675 48.5835C71.7446 49.2189 71.7884 49.8755 71.9945 50.4888L72.3445 51.458Z" fill="#090814"/>
<path d="M73.4307 55.6914L70.9687 57.0552L66.1331 58.413L67.5765 71.1032L67.3139 83.6035C67.3139 83.6035 75.4992 89.2266 83.3475 82.6597V66.926L82.8831 58.4132C82.8831 58.4132 81.0049 57.8781 80.0591 58.8011L78.2655 56.4646L73.4307 55.6914Z" fill="#E6E6E6"/>
<path d="M81.7993 59.5829L82.8839 58.4139L88.8609 57.735L88.3009 48.5293L91.5587 46.1978C91.5587 46.1978 94.5017 57.3641 93.9529 59.1577C93.4041 60.9513 82.8929 66.9258 82.8929 66.9258L81.7993 59.5829Z" fill="#E6E6E6"/>
<path d="M69.6837 87.7346C69.7284 87.4994 69.721 87.2572 69.6622 87.0252C69.6034 86.7931 69.4946 86.5768 69.3434 86.3915C69.1922 86.2062 69.0023 86.0564 68.7871 85.9527C68.5719 85.849 68.3367 85.7938 68.0979 85.7912L66.2579 80.2729L64.3979 82.6522L66.4293 87.5272C66.4512 87.9298 66.6196 88.3103 66.9026 88.5966C67.1856 88.8829 67.5636 89.0551 67.9648 89.0806C68.366 89.1061 68.7626 88.983 69.0794 88.7348C69.3961 88.4865 69.611 88.1304 69.6833 87.7338L69.6837 87.7346Z" fill="#ED9DA0"/>
<path d="M67.95 59.8663L66.1334 58.4131C66.1334 58.4131 64.2758 59.4406 63.7106 61.2829C63.1454 63.1252 62.156 73.6123 62.156 73.6123L64.841 87.0755L67.8438 84.9877L66.3954 74.3215L68.9392 66.5271L67.95 59.8663Z" fill="#E6E6E6"/>
<path d="M23.9544 79.3053C23.6948 80.1461 23.4904 81.003 23.3426 81.8706C23.2324 82.5208 23.1682 83.2433 23.5398 83.7862C22.1236 81.6498 20.6448 79.4493 18.4932 78.0702C18.9313 77.5937 19.2645 77.0302 19.4712 76.4161C19.678 75.8021 19.7536 75.1513 19.6932 74.5061C19.681 74.3773 21.4596 75.0506 21.5956 75.1278C22.2196 75.476 22.7916 75.9084 23.4002 76.281C23.7152 76.4728 25.0274 76.9272 25.0402 77.2012C25.0402 77.3775 24.5186 77.9174 24.4202 78.1037C24.228 78.4896 24.0718 78.8924 23.9536 79.3071L23.9544 79.3053Z" fill="#ED9DA0"/>
<path d="M17.3735 159.877C17.7231 159.63 18.1329 159.482 18.5594 159.45C18.9858 159.418 19.4131 159.502 19.7959 159.693C20.4887 160.052 20.9559 160.731 21.5851 161.191C22.6679 161.979 24.0977 162.042 25.3651 162.469C25.7015 162.583 26.0595 162.751 26.2015 163.082C26.2493 163.222 26.2683 163.369 26.2575 163.516C26.2468 163.663 26.2063 163.807 26.1387 163.938C25.9267 164.411 25.5554 164.795 25.0897 165.022C24.5213 165.295 23.8663 165.307 23.2361 165.315L17.7611 165.379C16.0754 165.367 14.3905 165.451 12.7143 165.629C12.3243 165.678 11.9023 165.732 11.5583 165.54C10.9983 165.233 10.9343 164.457 10.9771 163.818C11.0897 162.197 11.4508 160.604 12.0475 159.094C12.1133 158.927 12.2005 158.737 12.3855 158.706C12.5168 158.7 12.6459 158.742 12.7495 158.823C14.2941 159.743 16.2495 160.263 17.8925 159.526" fill="#D6D6E3"/>
<path d="M14.6324 124.85C15.2442 128.413 14.845 132.074 14.1568 135.62C14.0301 136.327 13.8632 137.025 13.6568 137.712C13.4104 138.494 13.0786 139.246 12.8478 140.032C12.2604 142.026 12.3432 144.158 12.431 146.239L12.8324 155.709C12.8662 156.503 12.8966 157.316 12.658 158.074C12.5618 158.38 12.4438 158.764 12.687 158.971C12.782 159.039 12.893 159.082 13.0092 159.095C14.1033 159.298 15.2336 159.128 16.2208 158.614L16.3294 149.047C16.3632 146.099 16.3982 143.137 16.851 140.224C17.211 137.908 17.8344 135.623 17.8756 133.28C17.9184 130.826 17.3188 128.405 16.7072 126.026C16.5756 125.517 16.0954 125.144 15.701 124.799C15.5634 124.663 15.3958 124.561 15.2118 124.502C15.0276 124.45 14.746 124.695 14.6324 124.85Z" fill="#090814"/>
<path opacity="0.1" d="M14.6317 124.85C15.2435 128.413 14.8443 132.074 14.1561 135.62C14.0294 136.327 13.8625 137.025 13.6561 137.712C13.4097 138.494 13.0779 139.246 12.8471 140.032C12.2597 142.026 12.3425 144.158 12.4303 146.239L12.8317 155.709C12.8655 156.503 12.8959 157.316 12.6573 158.074C12.5611 158.38 12.4431 158.764 12.6863 158.971C12.7813 159.039 12.8922 159.082 13.0085 159.095C14.1026 159.298 15.2329 159.128 16.2201 158.614L16.3287 149.047C16.3625 146.099 16.3975 143.137 16.8503 140.224C17.2103 137.908 17.8337 135.623 17.8749 133.28C17.9177 130.826 17.3181 128.405 16.7065 126.026C16.5749 125.517 16.0947 125.144 15.7003 124.799C15.5626 124.663 15.3951 124.561 15.2111 124.502C15.0269 124.45 14.7453 124.695 14.6317 124.85Z" fill="black"/>
<path d="M26.1168 113.717C26.343 114.651 25.8628 115.619 25.9168 116.579C25.9474 117.161 26.1754 117.74 26.0698 118.31C25.9642 118.881 25.5582 119.31 25.3402 119.833C25.1819 120.27 25.0982 120.73 25.0926 121.195C25.0298 122.342 25.0802 123.496 25.1232 124.638C25.195 126.555 25.2486 128.483 24.9962 130.383C24.7762 132.029 22.4962 140.391 21.926 141.638C21.536 142.493 19.3034 161.988 19.0312 162.266C18.7408 162.525 18.4032 162.725 18.037 162.855C16.9098 163.338 15.743 163.829 14.5196 163.818C14.371 163.825 14.2228 163.798 14.0868 163.737C13.8812 163.595 13.7319 163.384 13.6648 163.142L13.0378 161.587C12.962 161.399 12.8848 161.178 12.9904 161.003C13.0639 160.907 13.1528 160.824 13.2534 160.758C13.7596 160.33 13.645 159.531 13.5104 158.888C13.1668 157.238 12.9764 155.56 12.9418 153.874C12.8746 150.512 13.4266 147.171 13.9772 143.854C14.1363 142.696 14.392 141.553 14.7418 140.438C15.1218 139.334 15.6838 138.272 15.5922 137.124C15.4944 135.885 15.8154 134.586 15.5922 133.364C15.369 132.142 15.0158 130.945 14.7878 129.725C14.4926 128.14 14.4192 126.526 14.329 124.918C14.2912 124.262 14.2418 123.584 13.936 123.001C13.7572 122.66 13.4972 122.369 13.296 122.04C12.779 121.182 12.696 120.12 12.2026 119.248C11.9686 118.836 11.6458 118.472 11.4748 118.031C11.3546 117.682 11.2916 117.316 11.2884 116.948C11.24 116.022 11.2913 115.094 11.4414 114.18C14.0447 112.851 16.9319 112.18 19.8526 112.223C20.9732 112.209 22.0881 112.384 23.1506 112.742C24.1506 113.114 25.0616 113.637 26.1168 113.717Z" fill="#090814"/>
<path d="M19.8466 162.304C20.2962 162.865 20.2656 163.667 20.553 164.328C20.9016 165.13 21.6786 165.644 22.4156 166.112L27.0034 169.025C27.2745 169.156 27.4911 169.378 27.6152 169.652C27.6588 169.835 27.6509 170.026 27.5922 170.204C27.4827 170.588 27.2785 170.939 26.9985 171.225C26.7184 171.51 26.3714 171.72 25.9894 171.835C25.5834 171.932 25.1665 171.975 24.7494 171.963L22.6862 171.99C22.0578 172.015 21.4284 171.99 20.8038 171.917C20.2318 171.834 19.675 171.669 19.1062 171.565C18.0708 171.377 17.0062 171.394 15.9696 171.211C15.3347 171.086 14.7076 170.924 14.0916 170.725C13.3424 170.5 12.5792 170.265 11.9368 169.819C11.76 169.711 11.6166 169.556 11.5224 169.371C11.4416 169.106 11.446 168.822 11.5348 168.56L12.5202 164.219C12.5758 163.858 12.7071 163.513 12.9056 163.206C13.0079 163.054 13.1544 162.939 13.3249 162.874C13.4955 162.809 13.6818 162.799 13.8584 162.845C13.9991 162.909 14.132 162.989 14.2544 163.084C14.7808 163.396 15.4049 163.497 16.0024 163.368C16.3878 163.299 16.897 163.193 17.2074 162.937C17.443 162.742 17.5132 162.44 17.7136 162.219C17.8541 162.074 18.0233 161.961 18.2103 161.886C18.3973 161.811 18.5979 161.777 18.799 161.785C19.0002 161.793 19.1975 161.843 19.378 161.932C19.5586 162.022 19.7183 162.148 19.847 162.304H19.8466Z" fill="#D6D6E3"/>
<path d="M22.821 78.7076C25.8727 78.7076 28.3466 76.2268 28.3466 73.1666C28.3466 70.1063 25.8727 67.6255 22.821 67.6255C19.7693 67.6255 17.2954 70.1063 17.2954 73.1666C17.2954 76.2268 19.7693 78.7076 22.821 78.7076Z" fill="#ED9DA0"/>
<path d="M27.4095 73.7983C26.8805 73.5006 26.8805 72.6434 26.3389 72.3582C25.7973 72.073 25.1829 72.5684 24.8355 73.0684C24.3295 73.8006 23.9782 74.6289 23.8033 75.5022C23.784 75.7571 23.6855 75.9996 23.5219 76.1956C23.3292 76.3415 23.0935 76.4186 22.8521 76.4148C22.1537 76.4843 21.4543 76.5477 20.7539 76.6049C19.9739 76.6679 19.1513 76.719 18.4431 76.3825C18.1636 76.2572 17.9235 76.0579 17.7487 75.8059C17.6085 75.5639 17.5083 75.3008 17.4519 75.0267C17.0863 73.6326 16.7177 72.2219 16.6873 70.7802C16.6433 70.184 16.7557 69.5866 17.0131 69.0474C17.1799 68.7407 17.4245 68.4738 17.4931 68.1365C17.5297 67.9572 19.2119 66.1032 21.1395 65.4251C23.0671 64.747 25.0195 65.4287 25.2039 65.4251C25.5985 65.4175 26.0053 65.2717 26.3789 65.4036C26.3248 65.5027 26.2933 65.6126 26.2865 65.7254C26.2797 65.8382 26.2979 65.9511 26.3396 66.056C26.3814 66.1609 26.4458 66.2553 26.5282 66.3323C26.6106 66.4094 26.709 66.4672 26.8163 66.5017L26.6311 66.9066C26.8218 66.9448 26.9981 67.0357 27.14 67.169C27.2819 67.3024 27.3838 67.4729 27.4341 67.6613C27.6375 68.4666 27.5871 69.6106 27.5381 70.4387C27.5135 70.8017 27.1603 73.6621 27.4095 73.7983Z" fill="#192534"/>
<path d="M22.3683 80.3085C25.1439 83.4385 25.8507 87.8448 26.4427 91.9931L27.3143 98.1182C27.5405 99.7071 27.7731 101.296 27.9703 102.889C28.1079 103.98 28.2357 105.087 28.0865 106.176C27.9689 107.034 27.6827 107.862 27.4443 108.689C26.8235 110.857 26.5145 113.104 26.5267 115.359C26.3417 114.813 25.7009 114.593 25.1381 114.47C20.4159 113.442 15.4891 113.97 11.0897 115.974C10.3173 113.804 10.4627 111.43 10.2469 109.135C9.94111 105.864 8.88691 102.694 8.57531 99.4279C8.46071 98.2117 8.44691 96.9895 8.43531 95.7673C8.39287 94.8697 8.44927 93.9702 8.60351 93.085C8.81191 92.1129 9.25051 91.2063 9.70471 90.3245C10.9603 87.8732 12.3552 85.4964 13.8827 83.2056C14.6515 82.0528 15.4534 80.9226 16.2883 79.8149C16.7114 79.2534 17.1431 78.6985 17.5835 78.1503C18.0103 77.6182 18.1953 77.1565 18.8721 77.4754C20.1531 78.0767 21.4371 79.259 22.3683 80.3085Z" fill="#F1D914"/>
<path d="M20.7781 106.362C21.4553 106.387 22.1333 106.365 22.8075 106.298C23.3075 106.249 23.8183 106.175 24.3063 106.298C24.5185 106.351 24.7171 106.449 24.8891 106.585C24.9529 106.642 24.9987 106.716 25.021 106.798C25.0433 106.881 25.0411 106.968 25.0147 107.05C24.9882 107.131 24.9387 107.203 24.8721 107.257C24.8056 107.31 24.7249 107.343 24.6399 107.351L24.1169 107.397C23.7851 107.426 23.4395 107.46 23.1809 107.704C23.0748 107.8 23.0074 107.931 22.9913 108.074C22.9593 108.431 23.2681 108.626 23.5449 108.774C23.9385 108.96 19.8349 110.825 18.8239 110.348C17.6111 109.783 16.7807 108.569 16.4459 107.271C16.3286 106.893 16.308 106.491 16.3859 106.103C16.6107 105.23 17.6843 105.029 18.3739 105.451C19.2197 105.989 19.7105 106.328 20.7781 106.362Z" fill="#ED9DA0"/>
<path opacity="0.1" d="M20.0421 89.9405C19.2125 91.2253 17.7723 91.9491 16.5363 92.8514C16.235 93.0482 15.9723 93.2988 15.7613 93.5907C15.4495 94.0732 15.4055 94.6865 15.4697 95.2553C15.5777 96.002 15.7655 96.7349 16.0297 97.4414L16.5477 98.9926C16.8761 99.9767 16.9247 101.246 17.5493 102.073C17.7093 102.284 19.0417 104.622 19.0345 104.886C19.0207 105.038 18.9685 105.185 18.8829 105.311C18.4791 105.973 16.9688 104.062 16.2148 104.23C15.991 104.288 15.7565 104.288 15.5327 104.23C15.2217 104.104 14.9509 103.896 14.7493 103.627C13.6825 102.446 12.6159 101.25 11.8453 99.864C11.0927 98.5124 10.8695 97.1506 10.4547 95.6643C10.2839 95.1169 10.1649 94.5546 10.0993 93.9848C10.0405 92.9104 10.2645 91.8394 10.7487 90.8791C11.2061 89.9128 11.6087 88.8988 12.2565 88.049C12.8684 87.2143 13.5483 86.4319 14.2893 85.7099C15.5789 84.5011 17.1565 83.7905 18.8823 84.4762C20.1009 84.9612 20.5571 85.9728 20.6661 87.2682C20.7589 88.2035 20.5398 89.1433 20.0431 89.9403L20.0421 89.9405Z" fill="black"/>
<path d="M21.2955 88.7752C20.2248 90.4331 18.3652 91.3671 16.773 92.5311C16.3855 92.7875 16.0481 93.1129 15.7775 93.4912C15.3755 94.1129 15.3186 94.9037 15.4012 95.6386C15.541 96.6025 15.7835 97.5485 16.1246 98.4605L16.7931 100.454C17.2167 101.724 17.6542 103.018 18.4606 104.087C18.6654 104.359 18.9057 104.647 18.8965 104.99C18.8796 105.186 18.8121 105.375 18.7007 105.537C18.4431 105.959 18.1035 106.325 17.7021 106.613C17.3006 106.901 16.8455 107.105 16.3639 107.214C16.0751 107.287 15.7726 107.287 15.4839 107.214C15.0709 107.093 14.7621 106.753 14.4731 106.436C13.0967 104.912 11.7202 103.369 10.7262 101.582C9.75505 99.8387 10.4189 87.4319 11.2553 86.3352C12.0475 85.2638 12.9269 84.26 13.8843 83.334C15.5467 81.7757 17.5823 80.8573 19.8089 81.7436C21.3817 82.3693 21.9689 83.6728 22.1121 85.3461C22.2244 86.5483 21.938 87.7542 21.2973 88.7766L21.2955 88.7752Z" fill="#F1D914"/>
<path d="M93.6631 45.9919L89.5565 44.326C89.4226 44.2714 89.3158 44.1658 89.2594 44.0324C89.203 43.899 89.2016 43.7486 89.2555 43.6141L91.216 38.7544C91.2704 38.6201 91.3757 38.513 91.5087 38.4564C91.6418 38.3999 91.7917 38.3985 91.9258 38.4526L96.0324 40.1185C96.1662 40.1731 96.2729 40.2787 96.3292 40.4121C96.3856 40.5455 96.3869 40.6958 96.333 40.8302L94.3727 45.6897C94.3183 45.8241 94.213 45.9313 94.0799 45.988C93.9468 46.0446 93.7968 46.046 93.6626 45.9919L93.6631 45.9919Z" fill="#F1D914"/>
<path d="M51.2642 127.021C51.2622 127.112 51.2833 127.202 51.3256 127.282C51.3387 127.311 51.3594 127.337 51.3856 127.356C51.4118 127.375 51.4425 127.386 51.4746 127.389H101.049C101.166 127.389 101.26 127.225 101.26 127.022C101.26 126.819 101.166 126.654 101.049 126.654H51.4742C51.4421 126.657 51.4114 126.669 51.3852 126.688C51.359 126.707 51.3383 126.732 51.3252 126.762C51.2829 126.842 51.2618 126.932 51.2638 127.022L51.2642 127.021Z" fill="#E6E6E6"/>
<path d="M149.776 143.738V104.164H133.928V143.738H132.879V104.164H125.359V103.111H154.815V104.164H150.826V143.738H149.776Z" fill="#E6E6E6"/>
<path d="M179.928 101.143L180.436 98.7109C179.217 98.2973 178.174 97.4799 177.48 96.3931C176.785 95.3063 176.48 94.0148 176.615 92.7311C176.75 91.4474 177.316 90.2479 178.221 89.3299C179.126 88.4119 180.316 87.83 181.594 87.6801C182.873 87.5301 184.164 87.821 185.256 88.5049C186.347 89.1887 187.175 90.2248 187.601 91.4427C188.027 92.6606 188.028 93.9878 187.602 95.2059C187.177 96.4241 186.35 97.4608 185.259 98.1453L185.476 101.143H179.928Z" fill="#ED9DA0"/>
<path d="M166.143 106.65C166.143 106.65 161.302 107.233 162.118 103.395C162.935 99.5563 167.565 92.4663 167.565 92.4663L170.193 93.944L167.176 101.095L168.475 102.122L166.143 106.65Z" fill="#ED9DA0"/>
<path d="M182.008 101.977L181.326 107.603L164.231 107.519L167.665 101.536L182.008 101.977Z" fill="#F1D914"/>
<path d="M171.85 92.7655C172.896 91.3003 172.979 89.5639 172.037 88.8872C171.094 88.2104 169.482 88.8496 168.436 90.3148C167.39 91.78 167.306 93.5164 168.249 94.1931C169.192 94.8699 170.804 94.2307 171.85 92.7655Z" fill="#ED9DA0"/>
<path d="M145.039 103.461L145.145 98.8472L131.073 99.933L131.001 103.059L145.039 103.461Z" fill="#ED9DA0"/>
<path d="M135.516 99.3814L134.843 101.006L133.876 101.037C133.876 101.037 135.008 101.385 135.322 103.447L134.393 103.726C134.393 103.726 133.501 104.56 131.833 104.479L127.363 104.105L127.347 102.541L130.437 102.183C130.437 102.183 131.125 101.729 127.717 99.8616C127.717 99.8616 126.588 99.1692 127.603 95.7501C127.669 95.5201 127.807 95.3171 127.995 95.1701C128.184 95.0232 128.414 94.9399 128.653 94.9322C128.79 94.9159 128.93 94.9502 129.044 95.0287C129.159 95.1073 129.241 95.2248 129.276 95.3596C129.533 96.2148 129.273 97.0674 129.979 97.6013C130.685 98.1351 135.515 99.3812 135.515 99.3812L135.516 99.3814Z" fill="#090814"/>
<path d="M179.144 117.22C179.144 117.22 174.924 124.419 165.373 123.121C164.251 122.968 163.18 122.559 162.241 121.924C161.303 121.289 160.523 120.447 159.961 119.461C157.759 115.603 154.416 108.847 155.5 105.021L139.347 101.93L138.074 97.9964L155.555 95.7187C156.311 95.6202 157.08 95.7491 157.763 96.0891C158.446 96.429 159.012 96.9647 159.391 97.6282L167.907 112.542L170.446 112.82L179.144 117.22H179.144Z" fill="#090814"/>
<path d="M145.142 104.507L144.912 100.502L132.794 102.43L132.949 105.144L145.142 104.507Z" fill="#ED9DA0"/>
<path opacity="0.046" d="M145.142 104.507L144.912 100.502L132.794 102.43L132.949 105.144L145.142 104.507Z" fill="#090814"/>
<path d="M135.693 101.11L135.153 102.783L134.193 102.892C134.193 102.892 135.349 103.147 135.828 105.177L134.925 105.53C134.925 105.53 134.102 106.434 132.434 106.488L127.948 106.475L127.806 104.918L130.855 104.312C130.855 104.312 131.505 103.804 127.958 102.217C127.958 102.217 126.778 101.618 127.515 98.129C127.563 97.8945 127.684 97.6812 127.86 97.5195C128.036 97.3579 128.258 97.2562 128.495 97.2291C128.632 97.2016 128.773 97.2245 128.894 97.2936C129.014 97.3627 129.106 97.4732 129.151 97.6048C129.476 98.4361 129.285 99.3073 130.031 99.7825C130.777 100.258 135.692 101.11 135.692 101.11L135.693 101.11Z" fill="#090814"/>
<path d="M180.47 116.595C180.47 116.595 176.841 124.111 167.217 123.589C166.087 123.527 164.986 123.205 164 122.648C163.014 122.091 162.168 121.315 161.529 120.378C159.025 116.709 155.15 110.246 155.924 106.345L139.575 104.567L137.992 100.748L155.233 97.068C155.979 96.9088 156.755 96.9753 157.463 97.2591C158.171 97.5428 158.779 98.0311 159.21 98.6618L168.894 112.84L171.447 112.913L180.47 116.595Z" fill="#090814"/>
<path d="M169.17 86.2954L168.33 86.927L172.739 93.0316L173.579 92.821L169.17 86.2954Z" fill="#3F3D56"/>
<path d="M183.294 100.646C185.137 101.483 184.275 106.455 184.275 106.455C184.275 106.455 179 123.102 173.752 122.47V120.366C173.752 119.524 169.344 117.419 169.344 117.419L168.294 113.84L171.443 108.999C172.478 106.428 174.421 104.33 176.901 103.105C177.838 102.23 178.905 101.505 180.063 100.956C181.136 100.474 182.558 100.312 183.294 100.646Z" fill="#F1D914"/>
<path d="M162.79 97.9131L158.306 99.7015L167.105 111.385L170.196 109.001L162.79 97.9131Z" fill="#E6E6E6"/>
<path d="M173.332 120.978C170.184 118.647 165.657 111.49 165.657 111.49L165.69 111.466C165.007 111.071 164.444 110.497 164.063 109.806C163.164 108.245 163.25 106.509 164.254 105.928C165.258 105.347 166.801 106.14 167.698 107.701C168.107 108.381 168.321 109.161 168.318 109.956L173.332 115.409L174.801 114.647L177.95 118.646C177.95 118.646 177.01 121.63 175.021 121.631C174.524 121.631 173.962 121.444 173.332 120.978Z" fill="#ED9DA0"/>
<path d="M180.259 102.228L185.087 105.175L177.95 120.752L173.332 114.437L180.259 102.228Z" fill="#F1D914"/>
<path d="M180.365 143.738V123.012C179.37 123.552 178.071 123.955 176.376 124.115V143.738H175.327V124.18C175.122 124.187 174.912 124.19 174.697 124.19C171.467 124.173 168.242 123.95 165.041 123.522V143.739H163.991V123.38C162.935 123.231 161.94 123.071 161.024 122.912V143.738H159.974V122.724C156.914 122.158 154.965 121.644 154.965 121.644L160.213 120.719L172.147 121.659C174.874 121.873 177.172 119.301 176.807 116.313C176.795 116.215 176.78 116.115 176.764 116.014C176.165 112.385 182.873 101.911 182.873 101.911C184.126 97.3832 186.329 95.6006 186.329 95.6006C186.739 95.7148 187.141 95.8583 187.53 96.03C188.779 96.8232 189.156 98.628 188.423 99.9975C186.557 103.487 182.712 111.484 183.513 116.783C183.513 116.783 184.079 120.114 181.413 122.309V143.738H180.365Z" fill="#E6E6E6"/>
<path d="M124.993 143.623C124.991 143.717 125.02 143.808 125.075 143.884C125.098 143.916 125.128 143.943 125.163 143.961C125.198 143.98 125.236 143.99 125.275 143.991H191.718C191.798 143.969 191.869 143.921 191.919 143.855C191.97 143.788 191.997 143.707 191.997 143.624C191.997 143.54 191.97 143.459 191.919 143.393C191.869 143.326 191.798 143.278 191.718 143.256H125.275C125.235 143.257 125.197 143.268 125.162 143.286C125.127 143.305 125.097 143.331 125.075 143.364C125.02 143.439 124.991 143.531 124.992 143.624L124.993 143.623Z" fill="#E6E6E6"/>
<path d="M188.737 99.0096C188.737 99.0096 188.497 100.83 186.281 100.889L181.785 101.009C181.785 101.009 185.585 91.7339 184.023 92.7791C182.461 93.8242 178.293 89.4443 178.293 89.4443L177.063 91.7562C177.063 91.7562 174.125 90.6892 177.381 88.0769C177.381 88.0769 181.266 85.0651 185.39 86.8736C189.514 88.682 188.737 99.0092 188.737 99.0092L188.737 99.0096Z" fill="#090814"/>
</g>
<defs>
<clipPath id="clip0_43_2678">
<rect width="192" height="172" fill="white"/>
</clipPath>
</defs>
</svg>
