<svg width="19" height="19" viewBox="0 0 19 19" fill="none" xmlns="http://www.w3.org/2000/svg">
<g clip-path="url(#clip0_54_660)">
<path d="M16.1939 2.80584L18.1842 3.20365C18.2911 3.22502 18.3789 3.3034 18.4098 3.40909C18.4254 3.46043 18.4268 3.51503 18.4138 3.5671C18.4009 3.61916 18.374 3.66674 18.3362 3.70477L16.7057 5.3364C16.5104 5.53067 16.2462 5.63993 15.9707 5.6404H14.6181L11.2219 9.03784C11.2867 9.28249 11.2986 9.53814 11.2568 9.78776C11.2151 10.0374 11.1206 10.2752 10.9797 10.4855C10.8388 10.6957 10.6547 10.8735 10.4398 11.007C10.2248 11.1406 9.98377 11.2267 9.73286 11.2598C9.48194 11.2929 9.22686 11.2722 8.9846 11.1989C8.74234 11.1257 8.51847 11.0017 8.32789 10.8352C8.13732 10.6686 7.98442 10.4634 7.87939 10.2331C7.77435 10.0029 7.71959 9.75286 7.71875 9.49977C7.71869 9.22644 7.78154 8.95676 7.90242 8.71161C8.02331 8.46646 8.19899 8.25242 8.41587 8.08606C8.63275 7.9197 8.885 7.80549 9.1531 7.75225C9.4212 7.69902 9.69796 7.7082 9.96194 7.77909L13.3594 4.38046V3.03028C13.3594 2.75478 13.4686 2.48996 13.6634 2.29521L15.295 0.663588C15.333 0.625741 15.3806 0.598909 15.4327 0.585944C15.4847 0.57298 15.5393 0.574369 15.5907 0.589963C15.6964 0.620838 15.7747 0.708713 15.7961 0.815588L16.1939 2.80584Z" fill="black"/>
<path d="M2.37507 9.49995C2.37629 10.5188 2.596 11.5255 3.01937 12.4522C3.44274 13.3789 4.05993 14.204 4.82931 14.8719C5.59868 15.5398 6.50235 16.0349 7.47935 16.3239C8.45634 16.6128 9.48394 16.6889 10.4928 16.5469C11.5017 16.4049 12.4684 16.0483 13.3278 15.5009C14.1871 14.9536 14.919 14.2283 15.4742 13.3741C16.0294 12.5198 16.395 11.5564 16.5462 10.5489C16.6974 9.54131 16.6307 8.51305 16.3508 7.53345C16.3115 7.419 16.2958 7.29775 16.3049 7.17708C16.3139 7.0564 16.3475 6.93884 16.4034 6.83153C16.4593 6.72422 16.5365 6.62942 16.6302 6.5529C16.724 6.47637 16.8323 6.41973 16.9487 6.38641C17.065 6.35309 17.1869 6.3438 17.3069 6.35909C17.427 6.37439 17.5426 6.41395 17.6469 6.47538C17.7512 6.5368 17.8418 6.6188 17.9134 6.71639C17.9849 6.81398 18.0359 6.9251 18.0631 7.04301C18.6053 8.94007 18.5023 10.9634 17.7704 12.7957C17.0384 14.6279 15.719 16.1653 14.019 17.1667C12.319 18.1681 10.3347 18.5768 8.37735 18.3288C6.42 18.0807 4.60038 17.1899 3.20395 15.7961C1.80904 14.4 0.917268 12.5802 0.668639 10.6224C0.42001 8.66459 0.828606 6.67965 1.83027 4.97922C2.83194 3.27879 4.36996 1.95916 6.20285 1.22751C8.03575 0.495868 10.0597 0.393641 11.957 0.936883C12.1829 1.00292 12.3735 1.1557 12.4871 1.36183C12.6007 1.56796 12.6281 1.81069 12.5633 2.03695C12.4985 2.26322 12.3468 2.45464 12.1413 2.56937C11.9358 2.68411 11.6932 2.71283 11.4666 2.64926C10.4056 2.3446 9.2884 2.29062 8.20303 2.49156C7.11765 2.6925 6.0938 3.14287 5.21224 3.80715C4.33068 4.47143 3.61551 5.33145 3.12315 6.31938C2.63079 7.30731 2.37469 8.39612 2.37507 9.49995Z" fill="black"/>
<path d="M5.93758 9.50018C5.93765 10.1493 6.11493 10.786 6.4503 11.3417C6.78567 11.8974 7.2664 12.3511 7.84063 12.6536C8.41487 12.9562 9.06082 13.0963 9.7088 13.0587C10.3568 13.0211 10.9822 12.8073 11.5176 12.4404C12.053 12.0726 12.4775 11.5654 12.7454 10.9737C13.0133 10.382 13.1144 9.72834 13.0376 9.08337C13.0169 8.92686 13.0382 8.76764 13.0994 8.62212C13.1607 8.47659 13.2596 8.35002 13.386 8.25542C13.5124 8.16083 13.6617 8.10164 13.8186 8.08394C13.9755 8.06624 14.1343 8.09068 14.2786 8.15474C14.4228 8.21797 14.5478 8.31833 14.6406 8.44558C14.7334 8.57283 14.7909 8.72243 14.807 8.87912C14.936 9.98124 14.7188 11.0962 14.1854 12.0692C13.652 13.0423 12.8289 13.8251 11.8304 14.3091C10.8318 14.7931 9.7074 14.9543 8.61313 14.7702C7.51885 14.5862 6.50902 14.066 5.72379 13.282C4.93855 12.4979 4.41687 11.4889 4.23115 10.3949C4.04542 9.30089 4.20487 8.17621 4.68736 7.17695C5.16985 6.1777 5.95145 5.35342 6.92367 4.81854C7.89589 4.28366 9.01051 4.0647 10.1128 4.19206C10.2309 4.20301 10.3455 4.23741 10.4501 4.29325C10.5546 4.34909 10.647 4.42524 10.7218 4.51724C10.7965 4.60923 10.8521 4.71523 10.8854 4.82901C10.9187 4.94278 10.9289 5.06206 10.9154 5.17983C10.902 5.29761 10.8652 5.41151 10.8071 5.51488C10.7491 5.61824 10.671 5.70898 10.5775 5.78177C10.4839 5.85457 10.3768 5.90796 10.2623 5.93881C10.1479 5.96966 10.0284 5.97735 9.91095 5.96143C9.4118 5.90347 8.90603 5.95177 8.42686 6.10316C7.94769 6.25454 7.50598 6.50558 7.13072 6.83979C6.75546 7.17401 6.45515 7.58382 6.24952 8.04233C6.04388 8.50084 5.93758 8.99767 5.93758 9.50018Z" fill="black"/>
</g>
<defs>
<clipPath id="clip0_54_660">
<rect width="19" height="19" fill="white"/>
</clipPath>
</defs>
</svg>
