<svg width="24" height="24" viewBox="0 0 24 24" fill="none" xmlns="http://www.w3.org/2000/svg">
<path d="M19.6129 12C19.9298 12 20.2422 12.0754 20.5243 12.2198C20.8064 12.3643 21.0501 12.5737 21.2354 12.8309C21.4207 13.088 21.5422 13.3855 21.5899 13.6989C21.6376 14.0122 21.6102 14.3324 21.5099 14.633L19.9479 19.316C19.8816 19.515 19.7544 19.6882 19.5842 19.8109C19.4141 19.9337 19.2097 19.9998 18.9999 20H6.99988C6.73467 20 6.48031 19.8946 6.29278 19.7071C6.10524 19.5196 5.99988 19.2652 5.99988 19C5.99988 18.7348 6.10524 18.4804 6.29278 18.2929C6.48031 18.1054 6.73467 18 6.99988 18H10.2799L11.7099 13.709C11.8758 13.2116 12.1939 12.7789 12.6192 12.4722C13.0445 12.1655 13.5555 12.0003 14.0799 12H19.6129ZM8.99988 12C9.45188 12.0007 9.87955 12.0293 10.2829 12.086C10.0861 12.3956 9.92795 12.728 9.81188 13.076L8.95188 15.658C8.91868 15.7577 8.85492 15.8444 8.76966 15.9058C8.68439 15.9672 8.58195 16.0001 8.47688 16H6.99988C6.20424 16 5.44117 16.3161 4.87856 16.8787C4.31595 17.4413 3.99988 18.2044 3.99988 19H2.99988C2.85199 18.9999 2.70596 18.967 2.57231 18.9037C2.43867 18.8404 2.32073 18.7482 2.22699 18.6338C2.13326 18.5194 2.06606 18.3856 2.03025 18.2422C1.99444 18.0987 1.9909 17.949 2.01988 17.804C2.29188 16.442 2.85488 14.982 3.97988 13.856C5.12988 12.705 6.77388 12 8.99988 12ZM8.99988 3C10.0608 3 11.0782 3.42143 11.8283 4.17157C12.5785 4.92172 12.9999 5.93913 12.9999 7C12.9999 8.06087 12.5785 9.07828 11.8283 9.82843C11.0782 10.5786 10.0608 11 8.99988 11C7.93902 11 6.9216 10.5786 6.17146 9.82843C5.42131 9.07828 4.99988 8.06087 4.99988 7C4.99988 5.93913 5.42131 4.92172 6.17146 4.17157C6.9216 3.42143 7.93902 3 8.99988 3ZM18.9999 3C19.2085 3.00008 19.4118 3.06539 19.5815 3.18679C19.7511 3.30818 19.8785 3.47959 19.9459 3.677L20.1389 4.238C20.1883 4.38252 20.2701 4.51382 20.3781 4.62181C20.4861 4.7298 20.6174 4.81162 20.7619 4.861L21.3229 5.054C21.5201 5.12157 21.6912 5.24908 21.8124 5.41869C21.9336 5.58831 21.9987 5.79155 21.9987 6C21.9987 6.20845 21.9336 6.41169 21.8124 6.58131C21.6912 6.75092 21.5201 6.87843 21.3229 6.946L20.7619 7.139C20.6174 7.18838 20.4861 7.2702 20.3781 7.37819C20.2701 7.48618 20.1883 7.61748 20.1389 7.762L19.9459 8.323C19.8783 8.5202 19.7508 8.69134 19.5812 8.81252C19.4116 8.93369 19.2083 8.99883 18.9999 8.99883C18.7914 8.99883 18.5882 8.93369 18.4186 8.81252C18.249 8.69134 18.1215 8.5202 18.0539 8.323L17.8619 7.762C17.8124 7.61737 17.7304 7.48601 17.6223 7.37801C17.5141 7.27001 17.3826 7.18825 17.2379 7.139L16.6769 6.946C16.4797 6.87843 16.3085 6.75092 16.1874 6.58131C16.0662 6.41169 16.0011 6.20845 16.0011 6C16.0011 5.79155 16.0662 5.58831 16.1874 5.41869C16.3085 5.24908 16.4797 5.12157 16.6769 5.054L17.2379 4.861C17.3826 4.81175 17.5141 4.72999 17.6223 4.62199C17.7304 4.51399 17.8124 4.38263 17.8619 4.238L18.0539 3.677C18.2219 3.285 18.5519 3 18.9999 3Z" fill="black"/>
</svg>
