<svg width="24" height="24" viewBox="0 0 24 24" fill="none" xmlns="http://www.w3.org/2000/svg">
<path d="M13 2C12 3 12 4 12 4" stroke="black" stroke-width="2" stroke-linecap="round" stroke-linejoin="round"/>
<path d="M17 4C16.1 4 15.2 4.4 14.5 5.2C14.1884 4.84339 13.8041 4.55757 13.3729 4.36173C12.9417 4.1659 12.4736 4.06458 12 4.06458C11.5264 4.06458 11.0583 4.1659 10.6271 4.36173C10.1959 4.55757 9.81162 4.84339 9.5 5.2C8.8 4.4 7.9 4 7 4C4.2 4 2 8 2 13C2 18 4.2 22 7 22C7.9 22 8.8 21.6 9.5 20.8C9.81162 21.1566 10.1959 21.4424 10.6271 21.6383C11.0583 21.8341 11.5264 21.9354 12 21.9354C12.4736 21.9354 12.9417 21.8341 13.3729 21.6383C13.8041 21.4424 14.1884 21.1566 14.5 20.8C15.2 21.6 16.1 22 17 22C19.8 22 22 18 22 13C22 8 19.8 4 17 4Z" stroke="black" stroke-width="2" stroke-linecap="round" stroke-linejoin="round"/>
<path d="M10 11L8 9L6 11M18 11L16 9L14 11M6 15L8 17L10 15L12 17L14 15L16 17L18 15" stroke="black" stroke-width="2" stroke-linecap="round" stroke-linejoin="round"/>
</svg>
