<svg width="31" height="31" viewBox="0 0 31 31" fill="none" xmlns="http://www.w3.org/2000/svg">
<path d="M14.5125 8.5254L13.9691 8.00845V8.00845L14.5125 8.5254ZM9.83068 17.7907L9.08606 17.7011V17.7011L9.83068 17.7907ZM14.8647 8.16424L14.3344 7.63392V7.63392L14.8647 8.16424ZM24.4913 3.13021L24.581 3.87483L24.4913 3.13021ZM27.8699 6.50873L28.6145 6.59839L28.6145 6.59839L27.8699 6.50873ZM22.9379 16.0324L22.4037 15.5059L22.4037 15.5059L22.9379 16.0324ZM22.2822 16.6682L21.7724 16.1181L21.7724 16.1181L22.2822 16.6682ZM13.2092 21.1692L13.1196 20.4246L13.1196 20.4246L13.2092 21.1692ZM11.0766 21.2212L11.018 21.9689L11.018 21.9689L11.0766 21.2212ZM9.7787 19.9234L10.5264 19.8648L10.5264 19.8648L9.7787 19.9234ZM12.2278 10.1001C11.9848 10.4356 12.0598 10.9045 12.3953 11.1474C12.7308 11.3904 13.1997 11.3153 13.4427 10.9799L12.8352 10.54L12.2278 10.1001ZM16.6956 21.0614C17.083 20.9147 17.2781 20.4818 17.1314 20.0944C16.9847 19.7071 16.5518 19.512 16.1644 19.6587L16.43 20.36L16.6956 21.0614ZM19.8521 17.6775C19.5139 17.9166 19.4335 18.3847 19.6727 18.7229C19.9118 19.0611 20.3798 19.1415 20.718 18.9023L20.2851 18.2899L19.8521 17.6775ZM11.2332 15.1304C11.3715 14.74 11.1672 14.3114 10.7768 14.173C10.3863 14.0347 9.95768 14.239 9.81933 14.6294L10.5263 14.8799L11.2332 15.1304ZM14.8647 8.16424L14.3344 7.63392C14.2106 7.75774 14.0888 7.8826 13.9691 8.00845L14.5125 8.5254L15.0558 9.04235C15.167 8.92553 15.2801 8.80958 15.3951 8.69457L14.8647 8.16424ZM24.4913 3.13021L24.4017 2.38559C21.0088 2.79411 17.3524 4.616 14.3344 7.63392L14.8647 8.16424L15.3951 8.69457C18.2112 5.8785 21.5685 4.23755 24.581 3.87483L24.4913 3.13021ZM27.8699 6.50873L28.6145 6.59839C28.9116 4.13064 26.8694 2.08846 24.4017 2.38559L24.4913 3.13021L24.581 3.87483C26.0831 3.69396 27.3061 4.91691 27.1252 6.41907L27.8699 6.50873ZM22.9379 16.0324L23.472 16.559C26.4264 13.5621 28.2107 9.95158 28.6145 6.59839L27.8699 6.50873L27.1252 6.41907C26.7668 9.39608 25.16 12.7101 22.4037 15.5059L22.9379 16.0324ZM22.8358 16.1352L23.3661 16.6655C23.4016 16.6301 23.4368 16.5946 23.472 16.559L22.9379 16.0324L22.4037 15.5059C22.3711 15.539 22.3384 15.572 22.3055 15.6049L22.8358 16.1352ZM22.2822 16.6682L22.7919 17.2183C22.9856 17.0389 23.1771 16.8546 23.3661 16.6655L22.8358 16.1352L22.3055 15.6049C22.1299 15.7805 21.9521 15.9516 21.7724 16.1181L22.2822 16.6682ZM11.0766 21.2212L11.018 21.9689C11.7591 22.027 12.5233 22.0072 13.2989 21.9139L13.2092 21.1692L13.1196 20.4246C12.4347 20.5071 11.7701 20.5233 11.1351 20.4735L11.0766 21.2212ZM9.7787 19.9234L9.03099 19.982C9.11441 21.0467 9.95325 21.8855 11.018 21.9689L11.0766 21.2212L11.1351 20.4735C10.8064 20.4478 10.5522 20.1935 10.5264 19.8648L9.7787 19.9234ZM9.83068 17.7907L9.08606 17.7011C8.99267 18.4767 8.97292 19.2409 9.03099 19.982L9.7787 19.9234L10.5264 19.8648C10.4767 19.2299 10.4928 18.5652 10.5753 17.8804L9.83068 17.7907ZM14.5125 8.5254L13.9691 8.00845C13.3295 8.6807 12.7485 9.38107 12.2278 10.1001L12.8352 10.54L13.4427 10.9799C13.9239 10.3154 14.4621 9.66645 15.0558 9.04235L14.5125 8.5254ZM13.2092 21.1692L13.2989 21.9139C14.4154 21.7794 15.5585 21.492 16.6956 21.0614L16.43 20.36L16.1644 19.6587C15.1309 20.05 14.1058 20.3059 13.1196 20.4246L13.2092 21.1692ZM20.2851 18.2899L20.718 18.9023C21.4297 18.3992 22.124 17.8372 22.7919 17.2183L22.2822 16.6682L21.7724 16.1181C21.1525 16.6925 20.5095 17.2128 19.8521 17.6775L20.2851 18.2899ZM10.5263 14.8799L9.81933 14.6294C9.45456 15.6589 9.2077 16.6908 9.08606 17.7011L9.83068 17.7907L10.5753 17.8804C10.6827 16.9882 10.9024 16.064 11.2332 15.1304L10.5263 14.8799Z" fill="white"/>
<path d="M15.0506 25.7267C14.5682 25.8349 14.2882 25.2207 14.6147 24.8505C16.3157 22.9218 16.9659 20.597 16.0916 18.6805C16.0772 18.6488 16.0938 18.6117 16.1272 18.6025C17.1001 18.3318 18.1627 18.1843 19.2757 18.1873C19.5838 18.1881 19.8881 18.2004 20.1877 18.2237C20.3657 18.2375 20.5231 18.348 20.5887 18.5142C20.7873 19.0173 20.8941 19.5468 20.8956 20.0933C20.9027 22.7331 18.4495 24.964 15.0506 25.7267Z" stroke="white" stroke-width="1.5"/>
<path d="M5.09588 15.7719C4.98762 16.2544 5.60182 16.5344 5.9721 16.2078C7.90075 14.5069 10.2256 13.8567 12.1422 14.731C12.1738 14.7454 12.2109 14.7288 12.2201 14.6954C12.4908 13.7225 12.6383 12.6599 12.6354 11.5469C12.6345 11.2388 12.6222 10.9345 12.5989 10.6349C12.5851 10.4569 12.4746 10.2995 12.3084 10.2339C11.8053 10.0353 11.2758 9.92847 10.7293 9.927C8.08943 9.91991 5.85855 12.3731 5.09588 15.7719Z" stroke="white" stroke-width="1.5"/>
<circle cx="2.25454" cy="2.25454" r="2.25454" transform="matrix(0.70711 0.707104 -0.70711 0.707104 20.9036 6.73108)" stroke="white" stroke-width="1.5"/>
<path d="M2.61584 26.3393C2.05989 28.2393 2.76081 28.9402 4.66078 28.3842L8.74898 27.2484C10.3508 26.7797 11.055 24.9052 10.158 23.4978L9.42245 22.3438C9.22602 22.0356 8.96454 21.7741 8.65634 21.5777L7.50232 20.8422C6.09491 19.9452 4.2204 20.6494 3.7517 22.2511L2.61584 26.3393Z" stroke="white" stroke-width="1.5"/>
</svg>
