<svg width="108" height="108" viewBox="0 0 108 108" fill="none" xmlns="http://www.w3.org/2000/svg">
<path d="M54 1.49854L57.6135 6.32254L57.6675 6.39454L57.8925 6.68703C58.0845 6.94503 58.3695 7.31853 58.7475 7.80754C63.0055 13.3488 67.428 18.7618 72.009 24.039C75.9016 28.485 79.974 32.823 83.565 36.009C85.365 37.611 86.94 38.8305 88.2271 39.6225C89.298 40.284 89.856 40.446 89.9955 40.4865V36H98.9955V40.5C98.9955 42.3315 98.5275 44.595 96.9435 46.485C95.2425 48.5145 92.7585 49.5 89.9955 49.5H18C15.237 49.5 12.7575 48.51 11.0565 46.4895C9.47254 44.604 9.00004 42.3405 8.99554 40.518L8.97754 36.018L17.9775 35.982L17.9955 40.482V40.491C18.1305 40.446 18.693 40.284 19.7685 39.6225C21.4186 38.549 22.9778 37.342 24.4305 36.0135C28.017 32.8185 32.094 28.485 35.9865 24.039C40.8866 18.4148 45.5962 12.6276 50.1075 6.68703L50.328 6.39454L50.382 6.32254L54 1.49854ZM18 58.5V90H9.00004V99H40.5V85.5C40.5 81.9196 41.9224 78.4858 44.4541 75.9541C46.9858 73.4223 50.4196 72 54 72C57.5805 72 61.0142 73.4223 63.546 75.9541C66.0777 78.4858 67.5 81.9196 67.5 85.5V99H99V90H90V58.5H18Z" fill="#303030"/>
<path d="M54 81C52.8065 81 51.6619 81.4741 50.818 82.318C49.9741 83.1619 49.5 84.3065 49.5 85.5V99H58.5V85.5C58.5 84.3065 58.0259 83.1619 57.182 82.318C56.3381 81.4741 55.1935 81 54 81Z" fill="#303030"/>
</svg>
