<svg width="99" height="99" viewBox="0 0 99 99" fill="none" xmlns="http://www.w3.org/2000/svg">
<g clip-path="url(#clip0_37_867)">
<path d="M77.3438 0H83.5312C83.5312 4.10257 85.161 8.0371 88.0619 10.9381C90.9629 13.839 94.8974 15.4688 99 15.4688V21.6562C94.8974 21.6562 90.9629 23.286 88.0619 26.1869C85.161 29.0879 83.5312 33.0224 83.5312 37.125H77.3438C77.3438 33.0224 75.714 29.0879 72.8131 26.1869C69.9121 23.286 65.9776 21.6562 61.875 21.6562V15.4688C65.9776 15.4688 69.9121 13.839 72.8131 10.9381C75.714 8.0371 77.3438 4.10257 77.3438 0ZM34.0312 18.5625H46.4062C46.4062 27.5881 49.9917 36.2441 56.3738 42.6262C62.7559 49.0083 71.4118 52.5938 80.4375 52.5938V64.9688C71.4118 64.9688 62.7559 68.5542 56.3738 74.9363C49.9917 81.3184 46.4062 89.9743 46.4062 99H34.0312C34.0312 89.9743 30.4458 81.3184 24.0637 74.9363C17.6816 68.5542 9.02565 64.9688 0 64.9688L0 52.5938C9.02565 52.5938 17.6816 49.0083 24.0637 42.6262C30.4458 36.2441 34.0312 27.5881 34.0312 18.5625Z" fill="#303030"/>
</g>
<defs>
<clipPath id="clip0_37_867">
<rect width="99" height="99" fill="white"/>
</clipPath>
</defs>
</svg>
