<svg width="117" height="117" viewBox="0 0 117 117" fill="none" xmlns="http://www.w3.org/2000/svg">
<path d="M105.3 79.975V21.475C105.3 18.2575 102.667 15.625 99.45 15.625H17.55C14.3325 15.625 11.7 18.2575 11.7 21.475V79.975C11.7 83.1925 14.3325 85.825 17.55 85.825H99.45C102.667 85.825 105.3 83.1925 105.3 79.975ZM58.5 33.175C71.9549 33.175 84.24 39.844 93.6 50.725C84.24 61.606 71.9549 68.275 58.5 68.275C45.045 68.275 32.76 61.606 23.4 50.725C32.76 39.844 45.045 33.175 58.5 33.175ZM70.2 50.725C70.2 44.29 64.935 39.025 58.5 39.025C52.0649 39.025 46.7999 44.29 46.7999 50.725C46.7999 57.16 52.0649 62.425 58.5 62.425C64.935 62.425 70.2 57.16 70.2 50.725ZM81.8999 97.525H99.45V103.375H17.55V97.525H35.1V91.675H81.8999V97.525Z" fill="#303030"/>
</svg>
